<svg width="262" height="250" viewBox="0 0 262 250" fill="none" xmlns="http://www.w3.org/2000/svg">
<path fill-rule="evenodd" clip-rule="evenodd" d="M131.001 187.936L98.2498 169.027L65.4985 150.118V112.3V74.4823L98.2498 55.5733L131.001 36.6643L154.678 50.3346V69.6905L131.001 56.0206L82.2614 84.1602V140.44L131.001 168.58L179.741 140.44V112.3V84.1602V64.8043L196.503 74.4823V112.3V150.118L163.752 169.027L131.001 187.936Z" fill="#045304"/>
<path fill-rule="evenodd" clip-rule="evenodd" d="M87.1362 123.007C102.673 118.443 117.892 123.403 135.265 128.488C148.009 132.218 161.423 130.102 174.867 125.558V114.091C161.418 118.643 147.999 120.694 135.265 116.926C117.856 111.775 102.659 106.954 87.1362 111.503V123.007Z" fill="#3C2213"/>
<path fill-rule="evenodd" clip-rule="evenodd" d="M135.265 135.912C117.856 130.76 102.659 125.94 87.1362 130.489V137.626L92.5766 140.767L131.002 162.953L155.01 149.091L174.867 137.626V133.077C161.418 137.628 147.999 139.68 135.265 135.912Z" fill="#3C2213"/>
<path fill-rule="evenodd" clip-rule="evenodd" d="M179.777 46.1108C188.602 50.0519 197.906 51.5995 206.515 50.1265C216.593 48.4027 224.433 43.2618 229.399 34.4104C232.976 28.0375 235.612 25.8172 241.266 22.972C224.117 11.759 197.589 9.44954 180.702 23.5689C171.891 30.9361 168.163 44.6934 166.41 55.0596C165.732 59.0692 165.345 68.5657 165.194 79.0995C164.958 95.4724 164.37 106.027 153.928 113.806C160.523 113.249 167.077 111.583 173.306 109.475L173.566 109.387C169.826 96.3657 168.579 70.8562 170.341 59.0041C174.565 30.5836 191.878 23.593 203.429 22.9983C208.02 22.7617 211.134 23.2349 211.134 23.2349C184.497 24.3308 179.777 46.1108 179.777 46.1108Z" fill="#55C507"/>
<path fill-rule="evenodd" clip-rule="evenodd" d="M166.995 35.3559C164.569 29.9849 160.569 23.4271 154.599 20.1493C154.599 20.1493 164.14 22.0635 170.837 34.1505C172.033 31.6557 173.359 29.4217 174.809 27.4522C173.644 24.3037 171.575 20.9431 169.343 18.812C165.592 15.2282 160.762 12.0503 155.77 10.5256C150.659 8.96212 144.949 7.06851 143.438 0C143.438 0 131.646 32.1751 161.255 41.7737C165.142 43.0338 168.676 39.0798 166.995 35.3559Z" fill="#55C507"/>
<path d="M26.074 249.354H19.5903L17.7101 243.473H8.31397L6.45266 249.354H0L9.62236 222.934H16.6784L26.074 249.354ZM16.3452 238.908L13.5087 230.027C13.3014 229.361 13.1506 228.569 13.0622 227.65H12.9179C12.8549 228.424 12.7037 229.191 12.4585 229.952L9.5844 238.908H16.3452ZM50.2618 237.914C50.2618 245.844 46.5642 249.813 39.1746 249.813C31.9988 249.813 28.4141 245.939 28.4141 238.191V222.934H34.3824V238.26C34.3824 242.536 36.0549 244.675 39.3944 244.675C42.671 244.675 44.3125 242.612 44.3125 238.48V222.934H50.2618V237.914ZM74.9524 248.417C73.0282 249.347 70.5063 249.813 67.3995 249.813C63.3494 249.813 60.1608 248.624 57.8401 246.24C55.5134 243.857 54.3563 240.681 54.3563 236.713C54.3563 232.486 55.6582 229.059 58.268 226.43C60.8779 223.801 64.2678 222.487 68.4308 222.487C71.0092 222.487 73.1855 222.814 74.9524 223.468V229.197C73.1855 228.141 71.173 227.612 68.9087 227.612C66.4312 227.612 64.4247 228.392 62.903 229.952C61.3808 231.512 60.6202 233.625 60.6202 236.291C60.6202 238.845 61.3369 240.882 62.7771 242.398C64.2109 243.914 66.148 244.675 68.5816 244.675C70.9023 244.675 73.0282 244.108 74.9524 242.977V248.417ZM98.1149 227.776H90.5745V249.354H84.6062V227.776H77.1098V222.934H98.1149V227.776ZM123.208 237.914C123.208 245.844 119.511 249.813 112.121 249.813C104.945 249.813 101.36 245.939 101.36 238.191V222.934H107.329V238.26C107.329 242.536 109.001 244.675 112.341 244.675C115.617 244.675 117.259 242.612 117.259 238.48V222.934H123.208V237.914ZM127.743 248.341V242.442C128.812 243.341 129.975 244.014 131.227 244.461C132.478 244.907 133.742 245.134 135.019 245.134C135.774 245.134 136.428 245.064 136.981 244.932C137.541 244.794 138.006 244.612 138.384 244.367C138.761 244.127 139.038 243.844 139.22 243.524C139.409 243.197 139.497 242.844 139.497 242.461C139.497 241.945 139.352 241.486 139.056 241.084C138.761 240.675 138.359 240.298 137.849 239.958C137.34 239.612 136.736 239.279 136.032 238.964C135.333 238.644 134.579 238.316 133.767 237.983C131.705 237.128 130.164 236.078 129.151 234.832C128.139 233.594 127.636 232.096 127.636 230.342C127.636 228.965 127.906 227.782 128.46 226.795C129.013 225.802 129.768 224.99 130.717 224.349C131.673 223.714 132.774 223.242 134.025 222.94C135.277 222.638 136.604 222.487 138.006 222.487C139.384 222.487 140.604 222.575 141.667 222.739C142.723 222.902 143.704 223.16 144.604 223.506V229.015C144.157 228.707 143.679 228.436 143.157 228.204C142.635 227.971 142.094 227.776 141.541 227.619C140.994 227.468 140.44 227.355 139.893 227.279C139.346 227.21 138.83 227.172 138.34 227.172C137.661 227.172 137.05 227.235 136.497 227.361C135.944 227.493 135.478 227.675 135.095 227.908C134.717 228.141 134.422 228.417 134.208 228.744C134 229.072 133.9 229.436 133.9 229.839C133.9 230.286 134.013 230.682 134.246 231.028C134.478 231.38 134.812 231.713 135.246 232.028C135.673 232.336 136.195 232.644 136.812 232.945C137.421 233.248 138.12 233.556 138.893 233.876C139.95 234.317 140.893 234.788 141.736 235.285C142.579 235.782 143.302 236.348 143.899 236.971C144.503 237.599 144.962 238.316 145.283 239.121C145.604 239.92 145.761 240.857 145.761 241.926C145.761 243.404 145.484 244.637 144.924 245.643C144.365 246.643 143.61 247.454 142.648 248.071C141.692 248.693 140.579 249.14 139.308 249.41C138.032 249.681 136.692 249.813 135.277 249.813C133.83 249.813 132.453 249.693 131.145 249.448C129.837 249.203 128.698 248.832 127.743 248.341ZM183.752 249.354H177.269L175.388 243.473H165.992L164.131 249.354H157.678L167.301 222.934H174.357L183.752 249.354ZM174.024 238.908L171.187 230.027C170.98 229.361 170.829 228.569 170.741 227.65H170.596C170.533 228.424 170.382 229.191 170.137 229.952L167.263 238.908H174.024ZM208.368 247.586C205.789 249.07 202.582 249.813 198.746 249.813C194.501 249.813 191.148 248.637 188.696 246.285C186.249 243.933 185.023 240.694 185.023 236.568C185.023 232.418 186.363 229.034 189.042 226.418C191.715 223.795 195.281 222.487 199.727 222.487C202.525 222.487 204.997 222.877 207.129 223.651V229.235C205.092 228.053 202.601 227.468 199.651 227.468C197.18 227.468 195.174 228.267 193.62 229.87C192.06 231.474 191.287 233.612 191.287 236.291C191.287 239.002 191.985 241.103 193.375 242.593C194.771 244.077 196.651 244.819 199.023 244.819C200.45 244.819 201.582 244.618 202.412 244.215V239.052H197.13V234.298H208.368V247.586ZM235.675 249.354H228.838L224.732 242.555C224.423 242.039 224.128 241.58 223.845 241.171C223.562 240.769 223.279 240.423 222.99 240.134C222.7 239.845 222.398 239.624 222.084 239.468C221.77 239.316 221.43 239.241 221.065 239.241H219.461V249.354H213.506V222.934H222.939C229.354 222.934 232.562 225.33 232.562 230.116C232.562 231.04 232.417 231.889 232.134 232.669C231.851 233.449 231.455 234.153 230.939 234.782C230.423 235.404 229.801 235.945 229.071 236.398C228.335 236.857 227.524 237.21 226.625 237.467V237.543C227.021 237.669 227.398 237.863 227.769 238.14C228.14 238.417 228.492 238.738 228.838 239.109C229.184 239.48 229.511 239.876 229.826 240.298C230.14 240.719 230.423 241.134 230.681 241.543L235.675 249.354ZM219.461 227.393V234.744H222.04C223.317 234.744 224.342 234.373 225.115 233.638C225.902 232.889 226.298 231.958 226.298 230.857C226.298 228.543 224.914 227.393 222.147 227.393H219.461ZM248.938 249.813C245.152 249.813 242.07 248.58 239.687 246.121C237.303 243.656 236.115 240.448 236.115 236.493C236.115 232.317 237.322 228.94 239.743 226.361C242.164 223.782 245.366 222.487 249.359 222.487C253.133 222.487 256.183 223.726 258.51 226.191C260.836 228.663 262 231.921 262 235.958C262 240.109 260.792 243.461 258.378 246.002C255.969 248.542 252.818 249.813 248.938 249.813ZM249.196 227.612C247.108 227.612 245.447 228.392 244.221 229.965C242.995 231.531 242.379 233.6 242.379 236.178C242.379 238.794 242.995 240.863 244.221 242.392C245.447 243.914 247.057 244.675 249.045 244.675C251.101 244.675 252.724 243.933 253.931 242.454C255.132 240.97 255.736 238.92 255.736 236.291C255.736 233.549 255.151 231.417 253.988 229.896C252.818 228.373 251.221 227.612 249.196 227.612Z" fill="#045304"/>
</svg>
