<svg width="48" height="48" viewBox="0 0 48 48" fill="none" xmlns="http://www.w3.org/2000/svg">
<rect width="48" height="48" rx="24" fill="#EEF9E6"/>
<path d="M37.76 22.5263L36.9067 19.1579C37.1911 19.1579 37.3333 19.0175 37.3333 18.7368V18.2105C37.3333 17.6491 37.12 17.1579 36.6933 16.7368C36.2667 16.3158 35.7689 16.1053 35.2 16.1053H31.4667V15.0526C31.4667 14.7719 31.36 14.5263 31.1467 14.3158C30.9333 14.1053 30.6844 14 30.4 14H11.2C10.9156 14 10.6667 14.1053 10.4533 14.3158C10.24 14.5263 10.1333 14.7719 10.1333 15.0526V24C10.1333 24.1404 10.1867 24.2632 10.2933 24.3684C10.4 24.4737 10.5244 24.5263 10.6667 24.5263C10.8089 24.5263 10.9156 24.4737 10.9867 24.3684C11.0578 24.2632 11.0933 24.1404 11.0933 24V15.0526H11.2H30.4V24C30.4 24.1404 30.4533 24.2632 30.56 24.3684C30.6667 24.4737 30.7911 24.5263 30.9333 24.5263C31.0756 24.5263 31.2 24.4737 31.3067 24.3684C31.4133 24.2632 31.4667 24.1404 31.4667 24V23.4737H37.3333C37.6889 23.4737 38.0089 23.5789 38.2933 23.7895C38.5778 24 38.7911 24.2456 38.9333 24.5263H37.3333C37.1911 24.5263 37.0844 24.5789 37.0133 24.6842C36.9422 24.7895 36.9067 24.9123 36.9067 25.0526V26.1053C36.9067 26.5263 37.0489 26.8947 37.3333 27.2105C37.6178 27.5263 37.9733 27.6842 38.4 27.6842H39.04V29.7895H37.6533C37.44 29.2281 37.0667 28.7368 36.5333 28.3158C36 27.8947 35.3956 27.6842 34.72 27.6842C34.0444 27.6842 33.4222 27.8947 32.8533 28.3158C32.2844 28.7368 31.8933 29.2281 31.68 29.7895H31.4667V26.1053C31.4667 25.9649 31.4133 25.8421 31.3067 25.7368C31.2 25.6316 31.0756 25.5789 30.9333 25.5789C30.7911 25.5789 30.6667 25.6316 30.56 25.7368C30.4533 25.8421 30.4 25.9649 30.4 26.1053V29.7895H20.0533C19.84 29.2281 19.4489 28.7368 18.88 28.3158C18.3111 27.8947 17.6889 27.6842 17.0133 27.6842C16.3378 27.6842 15.7333 27.8947 15.2 28.3158C14.6667 28.7368 14.2933 29.2281 14.08 29.7895H11.2H11.0933V28.7368H13.3333C13.4756 28.7368 13.5822 28.6842 13.6533 28.5789C13.7244 28.4737 13.76 28.3509 13.76 28.2105C13.76 28.0702 13.7244 27.9474 13.6533 27.8421C13.5822 27.7368 13.4756 27.6842 13.3333 27.6842H8.53333C8.39111 27.6842 8.26667 27.7368 8.16 27.8421C8.05333 27.9474 8 28.0702 8 28.2105C8 28.3509 8.05333 28.4737 8.16 28.5789C8.26667 28.6842 8.39111 28.7368 8.53333 28.7368H10.1333V29.7895C10.1333 30.0702 10.24 30.3158 10.4533 30.5263C10.6667 30.7368 10.9156 30.8421 11.2 30.8421H13.8667C13.8667 31.6842 14.1867 32.4211 14.8267 33.0526C15.4667 33.6842 16.2133 34 17.0667 34C17.92 34 18.6667 33.6842 19.3067 33.0526C19.9467 32.4211 20.2667 31.6842 20.2667 30.8421H31.4667C31.4667 31.6842 31.7867 32.4211 32.4267 33.0526C33.0667 33.6842 33.8311 34 34.72 34C35.6089 34 36.3556 33.6842 36.96 33.0526C37.5644 32.4211 37.8667 31.6842 37.8667 30.8421H39.4667C39.6089 30.8421 39.7333 30.7895 39.84 30.6842C39.9467 30.5789 40 30.4561 40 30.3158V25.0526C40 24.4211 39.7867 23.8596 39.36 23.3684C38.9333 22.8772 38.4 22.5965 37.76 22.5263ZM31.4667 17.1579H35.2C35.4844 17.1579 35.7511 17.2632 36 17.4737C36.2489 17.6842 36.3733 17.9298 36.3733 18.2105H31.4667V17.1579ZM31.4667 22.4211V19.2632H35.9467L36.6933 22.4211H31.4667ZM17.0667 32.9474C16.4267 32.9474 15.9111 32.7544 15.52 32.3684C15.1289 31.9825 14.9333 31.4912 14.9333 30.8947C14.9333 30.2982 15.1289 29.7895 15.52 29.3684C15.9111 28.9474 16.4089 28.7368 17.0133 28.7368C17.6178 28.7368 18.1333 28.9474 18.56 29.3684C18.9867 29.7895 19.2 30.2982 19.2 30.8947C19.2 31.4912 18.9867 31.9825 18.56 32.3684C18.1333 32.7544 17.6356 32.9474 17.0667 32.9474ZM34.6667 32.9474C34.0978 32.9474 33.6 32.7544 33.1733 32.3684C32.7467 31.9825 32.5333 31.4912 32.5333 30.8947C32.5333 30.2982 32.7467 29.7895 33.1733 29.3684C33.6 28.9474 34.1156 28.7368 34.72 28.7368C35.3244 28.7368 35.84 28.9474 36.2667 29.3684C36.6933 29.7895 36.9067 30.2982 36.9067 30.8947C36.9067 31.4912 36.6933 31.9825 36.2667 32.3684C35.84 32.7544 35.3067 32.9474 34.6667 32.9474ZM39.04 26.6316H38.4C38.2578 26.6316 38.1333 26.5789 38.0267 26.4737C37.92 26.3684 37.8667 26.2456 37.8667 26.1053V25.5789H39.04V26.6316ZM17.0667 29.7895C16.7822 29.7895 16.5333 29.8947 16.32 30.1053C16.1067 30.3158 16 30.5614 16 30.8421C16 31.1228 16.1067 31.3684 16.32 31.5789C16.5333 31.7895 16.7822 31.8947 17.0667 31.8947C17.3511 31.8947 17.6 31.7895 17.8133 31.5789C18.0267 31.3684 18.1333 31.1228 18.1333 30.8421C18.1333 30.5614 18.0267 30.3158 17.8133 30.1053C17.6 29.8947 17.3511 29.7895 17.0667 29.7895ZM34.6667 29.7895C34.3822 29.7895 34.1511 29.8947 33.9733 30.1053C33.7956 30.3158 33.7067 30.5614 33.7067 30.8421C33.7067 31.1228 33.7956 31.3684 33.9733 31.5789C34.1511 31.7895 34.3822 31.8947 34.6667 31.8947C34.9511 31.8947 35.2 31.7895 35.4133 31.5789C35.6267 31.3684 35.7333 31.1228 35.7333 30.8421C35.7333 30.5614 35.6267 30.3158 35.4133 30.1053C35.2 29.8947 34.9511 29.7895 34.6667 29.7895ZM28.8 27.6842H21.3333C21.1911 27.6842 21.0667 27.7368 20.96 27.8421C20.8533 27.9474 20.8 28.0702 20.8 28.2105C20.8 28.3509 20.8533 28.4737 20.96 28.5789C21.0667 28.6842 21.1911 28.7368 21.3333 28.7368H28.8C28.9422 28.7368 29.0667 28.6842 29.1733 28.5789C29.28 28.4737 29.3333 28.3509 29.3333 28.2105C29.3333 28.0702 29.28 27.9474 29.1733 27.8421C29.0667 27.7368 28.9422 27.6842 28.8 27.6842ZM16 25.5789H9.6C9.45778 25.5789 9.33333 25.6316 9.22667 25.7368C9.12 25.8421 9.06667 25.9649 9.06667 26.1053C9.06667 26.2456 9.12 26.3684 9.22667 26.4737C9.33333 26.5789 9.45778 26.6316 9.6 26.6316H16C16.1422 26.6316 16.2667 26.5789 16.3733 26.4737C16.48 26.3684 16.5333 26.2456 16.5333 26.1053C16.5333 25.9649 16.48 25.8421 16.3733 25.7368C16.2667 25.6316 16.1422 25.5789 16 25.5789ZM25.3867 18.9474C25.3156 18.807 25.2089 18.7368 25.0667 18.7368C24.9244 18.7368 24.8178 18.807 24.7467 18.9474L20.2667 23.2632L17.92 21.0526C17.8489 20.9123 17.7422 20.8421 17.6 20.8421C17.4578 20.8421 17.3333 20.8947 17.2267 21C17.12 21.1053 17.0667 21.2281 17.0667 21.3684C17.0667 21.5088 17.1378 21.614 17.28 21.6842L19.9467 24.3158C20.0178 24.4561 20.1244 24.5263 20.2667 24.5263C20.4089 24.5263 20.5156 24.4561 20.5867 24.3158L25.3867 19.5789C25.5289 19.5088 25.6 19.4035 25.6 19.2632C25.6 19.1228 25.5289 19.0175 25.3867 18.9474Z" fill="#045304"/>
</svg>
