<svg width="64" height="64" viewBox="0 0 64 64" fill="none" xmlns="http://www.w3.org/2000/svg">
<rect width="64" height="64" rx="32" fill="#EEF9E6"/>
<path d="M45.468 17.2649V17.2659L45.469 17.2649L45.6204 17.2737C46.3546 17.3551 46.7343 18.0227 46.9172 18.4778C47.0827 18.8893 47.19 19.3698 47.261 19.8206L47.3206 20.2581L47.3215 20.262C47.352 20.5348 47.3243 20.8111 47.2405 21.0725C47.1581 21.3293 47.0217 21.565 46.843 21.7668L46.844 21.7678C46.8419 21.7702 46.8392 21.7723 46.8372 21.7747C46.8361 21.7759 46.8353 21.7774 46.8342 21.7786L46.8333 21.7776C46.6553 21.9814 46.4375 22.1468 46.1917 22.26C45.9414 22.3752 45.6693 22.435 45.3938 22.4358H44.8479C44.86 25.3983 44.7936 30.4105 44.3206 34.8254C44.0657 37.2036 43.689 39.4506 43.1272 41.1184C42.8474 41.9491 42.507 42.6835 42.0784 43.2219C41.648 43.7625 41.0723 44.1695 40.343 44.175L40.3284 44.177H35.5774C35.478 44.7265 35.2969 45.2714 34.9543 45.7209C34.4524 46.3796 33.6854 46.7346 32.6545 46.7346H17.3333C16.9651 46.7346 16.6663 46.4358 16.6663 46.0676C16.6664 45.6996 16.9651 45.4016 17.3333 45.4016C17.7968 45.4016 18.0948 45.3029 18.2942 45.176C18.4916 45.0504 18.6438 44.8637 18.762 44.5979C19.016 44.0264 19.0646 43.2066 19.0647 42.2307C19.0648 41.3317 19.0198 40.261 19.2004 39.4485C19.294 39.0278 19.4641 38.5891 19.8 38.2532C20.1552 37.898 20.625 37.7279 21.1702 37.7278H26.3733C27.0012 34.309 27.2961 29.9888 27.4309 26.4348C27.5017 24.5689 27.5285 22.9231 27.5374 21.7444C27.5418 21.1554 27.5414 20.6832 27.5403 20.3586C27.5397 20.1966 27.539 20.0711 27.5383 19.9866C27.538 19.9446 27.5376 19.9123 27.5374 19.8909V19.8372L28.2043 19.8508L27.5374 19.8362V19.8245C27.5375 19.8184 27.5379 19.8106 27.5383 19.801C27.5391 19.7817 27.541 19.7551 27.5432 19.7229C27.5476 19.6587 27.5547 19.5697 27.5686 19.4641C27.5959 19.2559 27.6489 18.967 27.7542 18.6692C27.9534 18.1052 28.446 17.2649 29.5217 17.2649H45.468ZM21.1702 39.0608C20.9165 39.0609 20.8068 39.1312 20.7424 39.1956C20.6588 39.2792 20.5686 39.44 20.5022 39.7385C20.3631 40.3646 20.3978 41.2127 20.3977 42.2317C20.3976 43.174 20.3662 44.2727 19.9807 45.1399C19.941 45.2291 19.8961 45.3161 19.8479 45.4016H32.6545C33.3503 45.4016 33.6894 45.1806 33.8938 44.9124C34.131 44.6009 34.2697 44.1162 34.3303 43.4504L34.3313 43.4456C34.3565 43.1872 34.3685 42.9171 34.3743 42.6379C34.3801 42.3585 34.3794 42.0699 34.3782 41.7747C34.3758 41.2012 34.3715 40.5927 34.427 40.05C34.4604 39.723 34.5197 39.3806 34.6331 39.0608H21.1702ZM29.5217 18.5989C29.3188 18.5989 29.1517 18.7182 29.012 19.1135C28.9477 19.2953 28.9108 19.4864 28.8909 19.6379C28.8812 19.7116 28.876 19.7722 28.8733 19.8127C28.8722 19.8287 28.8708 19.8418 28.8704 19.8508C28.8704 19.8566 28.8712 19.866 28.8713 19.8772C28.8716 19.8995 28.871 19.9328 28.8713 19.9758C28.872 20.0623 28.8737 20.1896 28.8743 20.3538C28.8754 20.6828 28.8749 21.1605 28.8704 21.7551C28.8614 22.9441 28.8343 24.6033 28.7629 26.4856C28.6308 29.9692 28.3441 34.2494 27.7278 37.7278H36.4915C36.9755 37.7278 37.4082 37.8246 37.761 38.0598C38.1219 38.3006 38.3279 38.6384 38.4426 38.9827C38.553 39.3138 38.5853 39.6699 38.5959 39.9905C38.6063 40.3031 38.5969 40.6625 38.5969 40.9514C38.5969 41.6037 38.6495 42.0482 38.844 42.3401C38.994 42.565 39.3338 42.843 40.3284 42.843C40.5159 42.8429 40.7506 42.7487 41.0354 42.3909C41.325 42.0268 41.6054 41.459 41.8635 40.6926C42.3779 39.1655 42.7434 37.0347 42.9954 34.6829C43.4979 29.9923 43.5366 24.5882 43.512 21.7747V21.7688C43.512 21.1771 43.5084 20.6996 43.5051 20.3704C43.5035 20.2057 43.5025 20.0776 43.5012 19.9915C43.5006 19.9484 43.4996 19.9157 43.4993 19.8938V19.8665L43.4983 19.8645V19.8372C43.4983 19.8358 43.4992 19.834 43.4993 19.8323V19.804C43.4999 19.7848 43.5012 19.7587 43.5032 19.7268C43.5071 19.6626 43.5144 19.5728 43.5276 19.467C43.5359 19.4006 43.5475 19.326 43.5618 19.2454C43.5922 19.0738 43.6372 18.8755 43.7073 18.6731C43.7158 18.6486 43.727 18.6243 43.7366 18.5989H29.5217ZM36.4905 39.0608C36.1978 39.0608 36.0864 39.1528 36.0081 39.2639C35.894 39.4261 35.8022 39.7163 35.7542 40.1858C35.7073 40.6438 35.7088 41.1754 35.7112 41.7698C35.7126 42.1149 35.7129 42.4794 35.7014 42.844H37.5969C37.2839 42.2239 37.2629 41.5066 37.2629 40.9524C37.2629 40.6021 37.2725 40.322 37.2629 40.0354C37.2537 39.7567 37.2264 39.5528 37.177 39.4045C37.132 39.2696 37.0781 39.2081 37.0198 39.1692C36.953 39.1247 36.8055 39.0608 36.4905 39.0608ZM39.0774 33.8909C39.4454 33.8909 39.7442 34.1889 39.7444 34.5569C39.7444 34.925 39.4455 35.2238 39.0774 35.2239H31.4036C31.0355 35.2237 30.7375 34.925 30.7375 34.5569C30.7377 34.189 31.0356 33.8911 31.4036 33.8909H39.0774ZM39.717 30.053C40.0852 30.053 40.384 30.3518 40.384 30.72C40.384 31.0881 40.0852 31.387 39.717 31.387H32.3635C31.9955 31.3868 31.6976 31.088 31.6975 30.72C31.6975 30.3519 31.9955 30.0532 32.3635 30.053H39.717ZM39.717 26.217C40.0852 26.217 40.384 26.5158 40.384 26.884C40.384 27.2522 40.0852 27.551 39.717 27.551H32.3635C31.9956 27.5508 31.6976 27.252 31.6975 26.884C31.6975 26.516 31.9955 26.2173 32.3635 26.217H39.717ZM34.5999 22.3811C34.968 22.3811 35.2668 22.6799 35.2668 23.0481C35.2667 23.4162 34.968 23.7141 34.5999 23.7141H32.0422C31.6743 23.7139 31.3763 23.4161 31.3762 23.0481C31.3762 22.68 31.6742 22.3813 32.0422 22.3811H34.5999ZM45.4504 18.5999C45.3574 18.6034 45.2726 18.6329 45.1946 18.7063C45.1115 18.7846 45.0363 18.9122 44.968 19.1096C44.9053 19.291 44.8696 19.4816 44.8508 19.6331C44.8416 19.7071 44.8367 19.7682 44.8342 19.8088C44.8334 19.8218 44.8336 19.8327 44.8333 19.8411C44.8331 19.8449 44.8324 19.8481 44.8323 19.8508V19.8723C44.8326 19.895 44.8336 19.9283 44.8342 19.9719C44.8355 20.0599 44.8365 20.19 44.8381 20.3567C44.8401 20.5551 44.8408 20.8061 44.842 21.1028H45.3899C45.4741 21.1025 45.5576 21.0843 45.634 21.0491C45.7104 21.0139 45.7784 20.9624 45.8333 20.8987L45.843 20.8879C45.9008 20.8236 45.9445 20.7476 45.9709 20.6653C45.9969 20.5844 46.0051 20.4988 45.9963 20.4143L45.9426 20.0208C45.8809 19.6313 45.795 19.2611 45.6799 18.9749C45.5643 18.6874 45.4764 18.6156 45.4504 18.5999Z" fill="#045304"/>
</svg>
