<svg width="32" height="32" viewBox="0 0 32 32" fill="none" xmlns="http://www.w3.org/2000/svg">
<path d="M16.9693 28.2032C16.4589 27.9854 15.9831 27.6109 15.9065 26.9678C15.8055 26.119 16.228 25.4747 16.6017 25.0827C16.7321 24.9458 16.6691 24.7201 16.4877 24.6671C16.2269 24.5908 15.9684 24.5332 15.7057 24.5124C15.3855 24.4872 15.1217 24.4725 14.8758 24.4662C14.8255 24.4649 14.7753 24.4639 14.7252 24.4634H14.7161C14.6661 24.4611 14.6158 24.4596 14.5655 24.4584C14.3197 24.452 14.0556 24.4533 13.7344 24.4621C13.4499 24.47 13.1682 24.521 12.8821 24.592C12.8003 24.6122 12.7338 24.6719 12.7047 24.7512C12.5054 25.2932 12.4043 25.8795 12.4144 26.4556C12.3864 28.0642 13.222 29.7559 14.6555 30.3247C15.3142 30.586 16.0928 30.5865 16.6909 30.1964C17.0613 29.9548 17.3372 29.547 17.4373 29.1063C17.522 28.7333 17.3208 28.3538 16.9693 28.2037V28.2032Z" fill="white"/>
<path d="M16.2914 26.7907C16.3214 27.1358 16.634 27.3536 16.9282 27.4835C16.7295 26.9301 16.7131 26.2747 16.8786 25.7041C16.8094 25.7516 16.2368 26.1655 16.2914 26.7907Z" fill="white"/>
<path d="M20.7503 9.494C20.461 8.76222 20.1565 8.01831 19.6425 7.42247C19.1285 6.82639 18.3609 6.39379 17.5786 6.4797C17.575 6.48021 17.5712 6.48046 17.5677 6.48096C17.0237 6.54388 16.6686 7.08943 16.824 7.61452C17.7173 10.6356 17.4012 13.2454 17.4012 13.2454C17.2721 10.5378 16.6029 8.16765 16.2901 7.18849C16.212 6.94439 16.0344 6.743 15.7989 6.64268C15.6986 6.59998 15.5945 6.5646 15.4873 6.53706C15.6832 4.60552 15.2008 2.77607 14.9286 1.93513C14.8432 1.67107 14.5966 1.49268 14.3189 1.49268H14.2972C13.9199 1.49268 13.6506 1.85882 13.7638 2.21839C14.3874 4.2035 14.5456 6.06959 14.5751 6.50067C14.5198 6.51028 14.4655 6.5219 14.4116 6.53529C14.1243 6.60807 13.8924 6.82007 13.7928 7.09929C13.173 8.83701 11.999 12.6132 12.1855 15.8387C12.1855 15.8387 11.5419 11.8018 13.1199 7.70018C13.32 7.17989 13.0037 6.602 12.4556 6.50042C12.4091 6.49183 12.3618 6.48475 12.3143 6.47945C11.532 6.39353 10.7644 6.82639 10.2504 7.42222C9.73643 8.01831 9.43169 8.76197 9.14262 9.49375C7.67653 13.2042 6.36711 17.2164 7.17849 21.1229C7.54791 22.9016 8.69233 24.8293 10.5059 24.9369C11.6811 25.0067 12.7687 24.2734 13.9442 24.211C14.2853 24.1928 14.6188 24.1819 14.9466 24.1867C15.2746 24.1819 15.6081 24.193 15.949 24.211C16.5936 24.2453 17.2119 24.4811 17.8325 24.6757C18.415 24.8581 19.0335 24.521 19.1945 23.932C19.5293 22.7057 19.9369 20.502 19.6476 17.651C19.6476 17.651 20.5989 21.906 19.242 24.9412C19.2903 24.9412 19.3388 24.94 19.3873 24.9372C21.2008 24.8296 22.3452 22.9018 22.7147 21.1231C23.5263 17.2169 22.2169 13.2047 20.7505 9.494H20.7503Z" fill="white"/>
<path d="M15.9329 2.94815C16.4453 3.0515 16.93 3.15914 17.3871 3.26881C18.674 3.07853 19.7239 3.24354 19.7239 3.24354C19.1281 3.21246 18.2192 3.29306 17.7065 3.34663C18.2091 3.47171 18.6755 3.59856 19.1048 3.72339C20.1729 3.593 21.0161 3.72541 21.0161 3.72541C20.5401 3.70065 19.8414 3.75523 19.3694 3.80147C21.5286 4.4486 22.6735 5.02548 22.6735 5.02548C22.0544 4.78316 21.2453 4.54487 20.4036 4.32756C20.7521 4.65959 21.4973 5.35145 22.0304 5.71684C22.0304 5.71684 21.0914 5.20818 20.1825 4.27121C19.525 4.1052 18.8562 3.95308 18.2495 3.82244C18.5939 4.15094 19.3479 4.85214 19.8856 5.22056C19.8856 5.22056 18.9487 4.71291 18.0405 3.77797C16.8408 3.52351 15.9326 3.3623 15.9326 3.3623C20.2255 8.72911 25 5.55688 25 5.55688C22.2199 1.36532 15.9326 2.94789 15.9326 2.94789L15.9329 2.94815Z" fill="white"/>
</svg>
