<svg width="48" height="48" viewBox="0 0 48 48" fill="none" xmlns="http://www.w3.org/2000/svg">
<rect width="48" height="48" rx="24" fill="#EEF9E6"/>
<path d="M30.2857 24.7856L31.788 27.6951L35 28.1618L32.6429 30.2856L33.2486 33.4284L30.2857 31.6606L27.3228 33.4284L27.9286 30.2856L25.5714 28.1618L28.8714 27.6951L30.2857 24.7856ZM16.1429 23.9999H20.8571V25.5713H16.1429V23.9999ZM16.1429 20.857H24V22.4284H16.1429V20.857ZM16.1429 17.7141H24V19.2856H16.1429V17.7141Z" fill="#045304"/>
<path d="M24 31.857H14.5714V16.1427H33.4286V23.9999H35V16.1427C35 15.7259 34.8344 15.3262 34.5397 15.0315C34.245 14.7368 33.8453 14.5713 33.4286 14.5713H14.5714C14.1547 14.5713 13.755 14.7368 13.4603 15.0315C13.1656 15.3262 13 15.7259 13 16.1427V31.857C13 32.2738 13.1656 32.6735 13.4603 32.9682C13.755 33.2629 14.1547 33.4284 14.5714 33.4284H24V31.857Z" fill="#045304"/>
</svg>
