<svg width="48" height="48" viewBox="0 0 48 48" fill="none" xmlns="http://www.w3.org/2000/svg">
<rect width="48" height="48" rx="24" fill="#EEF9E6"/>
<path d="M19.2857 14L19.5715 13.4162C19.3701 13.3176 19.132 13.3298 18.9417 13.4485C18.7514 13.5672 18.6357 13.7757 18.6357 14H19.2857ZM20.8572 14.7692L20.5714 15.353C20.7517 15.4413 20.9626 15.4413 21.1429 15.353L20.8572 14.7692ZM22.4286 14L22.7148 13.4164C22.5344 13.3279 22.3233 13.3279 22.1428 13.4162L22.4286 14ZM23.9971 14.7692L23.7109 15.3528C23.8903 15.4408 24.1003 15.4414 24.2802 15.3543L23.9971 14.7692ZM25.5867 14L25.8747 13.4173C25.6949 13.3284 25.4841 13.3275 25.3035 13.4149L25.5867 14ZM27.1429 14.7692L26.8548 15.3519C27.0361 15.4415 27.2488 15.4417 27.4302 15.3523L27.1429 14.7692ZM28.704 14L28.9903 13.4164C28.8093 13.3277 28.5975 13.3279 28.4167 13.4169L28.704 14ZM30.272 14.7692L29.9857 15.3528C30.1654 15.4409 30.3757 15.4414 30.5557 15.354L30.272 14.7692ZM31.8571 14L32.1429 13.4162C31.9633 13.3283 31.7532 13.3279 31.5734 13.4152L31.8571 14ZM33.4291 14.7692L33.1434 15.3531C33.3237 15.4413 33.5346 15.4413 33.7149 15.353L33.4291 14.7692ZM35 14H35.65C35.65 13.7757 35.5343 13.5672 35.344 13.4485C35.1537 13.3298 34.9156 13.3176 34.7141 13.4162L35 14ZM27.1429 27.8462H27.7929C27.7929 27.4872 27.5019 27.1962 27.1429 27.1962V27.8462ZM13.7857 27.8462L13.7801 28.4962H13.7857V27.8462ZM13 28.6154H13.6501L13.65 28.6095L13 28.6154ZM22.4286 17.9654C22.0696 17.9654 21.7786 18.2564 21.7786 18.6154C21.7786 18.9744 22.0696 19.2654 22.4286 19.2654V18.6154V17.9654ZM31.8571 19.2654C32.2161 19.2654 32.5071 18.9744 32.5071 18.6154C32.5071 18.2564 32.2161 17.9654 31.8571 17.9654V18.6154V19.2654ZM25.5714 21.8115C25.2125 21.8115 24.9214 22.1026 24.9214 22.4615C24.9214 22.8205 25.2125 23.1115 25.5714 23.1115V22.4615V21.8115ZM31.8571 23.1115C32.2161 23.1115 32.5071 22.8205 32.5071 22.4615C32.5071 22.1026 32.2161 21.8115 31.8571 21.8115V22.4615V23.1115ZM19.2857 27.8462H19.9357V14H19.2857H18.6357V27.8462H19.2857ZM19.2857 14L19 14.5838L20.5714 15.353L20.8572 14.7692L21.1429 14.1854L19.5715 13.4162L19.2857 14ZM20.8572 14.7692L21.1429 15.353L22.7144 14.5838L22.4286 14L22.1428 13.4162L20.5714 14.1854L20.8572 14.7692ZM22.4286 14L22.1424 14.5836L23.7109 15.3528L23.9971 14.7692L24.2833 14.1856L22.7148 13.4164L22.4286 14ZM23.9971 14.7692L24.2802 15.3543L25.8698 14.5851L25.5867 14L25.3035 13.4149L23.7139 14.1841L23.9971 14.7692ZM25.5867 14L25.2986 14.5827L26.8548 15.3519L27.1429 14.7692L27.4309 14.1865L25.8747 13.4173L25.5867 14ZM27.1429 14.7692L27.4302 15.3523L28.9913 14.5831L28.704 14L28.4167 13.4169L26.8556 14.1862L27.1429 14.7692ZM28.704 14L28.4177 14.5836L29.9857 15.3528L30.272 14.7692L30.5583 14.1857L28.9903 13.4164L28.704 14ZM30.272 14.7692L30.5557 15.354L32.1409 14.5848L31.8571 14L31.5734 13.4152L29.9882 14.1844L30.272 14.7692ZM31.8571 14L31.5714 14.5838L33.1434 15.3531L33.4291 14.7692L33.7148 14.1854L32.1429 13.4162L31.8571 14ZM33.4291 14.7692L33.7149 15.353L35.2859 14.5838L35 14L34.7141 13.4162L33.1432 14.1855L33.4291 14.7692ZM35 30.1538H34.35C34.35 30.997 34.008 31.8085 33.3946 32.409L33.8493 32.8735L34.3041 33.338C35.1642 32.4959 35.65 31.3508 35.65 30.1538H35ZM33.8493 32.8735L33.3946 32.409C32.7808 33.01 31.9454 33.35 31.0714 33.35V34V34.65C32.2814 34.65 33.4444 34.1796 34.3041 33.338L33.8493 32.8735ZM31.0714 34V33.35C30.1975 33.35 29.3621 33.01 28.7482 32.409L28.2935 32.8735L27.8388 33.338C28.6985 34.1796 29.8615 34.65 31.0714 34.65V34ZM28.2935 32.8735L28.7482 32.409C28.1349 31.8085 27.7929 30.997 27.7929 30.1538H27.1429H26.4929C26.4929 31.3508 26.9787 32.4959 27.8388 33.338L28.2935 32.8735ZM27.1429 30.1538H27.7929V27.8462H27.1429H26.4929V30.1538H27.1429ZM27.1429 27.8462V27.1962H13.7857V27.8462V28.4962H27.1429V27.8462ZM13.7857 27.8462L13.7914 27.1962C13.6035 27.1945 13.4169 27.2295 13.2423 27.2995L13.484 27.9029L13.7256 28.5063C13.7425 28.4995 13.7611 28.496 13.7801 28.4961L13.7857 27.8462ZM13.484 27.9029L13.2423 27.2995C13.0677 27.3694 12.9082 27.473 12.7734 27.605L13.2281 28.0695L13.6828 28.5339C13.6943 28.5227 13.7088 28.5131 13.7256 28.5063L13.484 27.9029ZM13.2281 28.0695L12.7734 27.605C12.6386 27.737 12.5312 27.8947 12.4582 28.0694L13.058 28.32L13.6577 28.5705C13.6631 28.5577 13.6714 28.5451 13.6828 28.5339L13.2281 28.0695ZM13.058 28.32L12.4582 28.0694C12.3852 28.2441 12.3483 28.4317 12.3501 28.6213L13 28.6154L13.65 28.6095C13.6499 28.5965 13.6524 28.5833 13.6577 28.5705L13.058 28.32ZM13 28.6154H12.35C12.35 30.1329 12.4211 31.6469 13.0466 32.7764C13.373 33.3659 13.8466 33.8479 14.5099 34.1745C15.1624 34.4958 15.9638 34.65 16.9286 34.65V34V33.35C16.0946 33.35 15.5055 33.2157 15.0842 33.0082C14.6735 32.806 14.3899 32.5187 14.1839 32.1467C13.7444 31.3531 13.65 30.1748 13.65 28.6154H13ZM16.9286 34V34.65H31.0714V34V33.35H16.9286V34ZM22.4286 18.6154V19.2654H31.8571V18.6154V17.9654H22.4286V18.6154ZM25.5714 22.4615V23.1115H31.8571V22.4615V21.8115H25.5714V22.4615ZM35 14H34.35V30.1538H35H35.65V14H35Z" fill="#045304"/>
</svg>
