<svg width="64" height="64" viewBox="0 0 64 64" fill="none" xmlns="http://www.w3.org/2000/svg">
<rect width="64" height="64" rx="32" fill="#EEF9E6"/>
<path d="M32.4694 18.3333L33.5934 18.3411C33.9297 18.3493 34.229 18.366 34.4938 18.3997C35.0378 18.4689 35.5011 18.6166 35.8884 18.9583C36.2762 19.3005 36.4806 19.742 36.6169 20.2737C36.7496 20.7914 36.831 21.4542 36.9333 22.2747L37.1178 23.7512C37.1424 23.7542 37.167 23.7569 37.1911 23.76C37.9261 23.8559 38.5261 24.057 39.0143 24.51L39.1862 24.6858C39.564 25.1105 39.77 25.6363 39.903 26.2717C40.052 26.9836 40.1217 27.8978 40.2106 29.052L40.4821 32.5833L43.2848 33.8254C43.5281 33.9331 43.7576 34.0332 43.9342 34.1418C44.1018 34.245 44.2613 34.3783 44.3708 34.5754L44.4147 34.6643L44.4157 34.6672C44.5206 34.9122 44.514 35.1478 44.4694 35.3665C44.4289 35.5652 44.3467 35.7934 44.2624 36.0325L44.2614 36.0344C43.7462 37.4832 42.6123 40.0791 40.9997 42.3362C41.3626 42.3528 41.7464 42.448 42.1139 42.5666C42.5234 42.6989 42.9517 42.8729 43.3551 43.0383C43.7666 43.2071 44.1508 43.3666 44.5016 43.4836C44.8594 43.603 45.1331 43.661 45.3268 43.6584C45.6028 43.6549 45.8298 43.8757 45.8337 44.1516C45.8373 44.4277 45.6156 44.6548 45.3395 44.6584C44.9721 44.6632 44.5679 44.5596 44.1852 44.4319C43.7955 44.3018 43.3761 44.1285 42.9753 43.9641C42.5665 43.7965 42.1733 43.6363 41.8063 43.5178C41.4349 43.3979 41.1278 43.3333 40.8893 43.3333C40.6641 43.3333 40.4039 43.3989 40.0866 43.5237C39.7656 43.65 39.4373 43.815 39.0524 43.9963C38.3172 44.3427 37.4175 44.7302 36.4128 44.6575C35.6184 44.653 34.7901 44.2693 34.0846 43.9573C33.3114 43.6154 32.6353 43.3333 31.9997 43.3333C31.3642 43.3333 30.6887 43.6155 29.9157 43.9573C29.2025 44.2727 28.3635 44.6615 27.5612 44.6575L27.5622 44.6584C27.5602 44.6585 27.5583 44.6574 27.5563 44.6575C27.5547 44.6575 27.553 44.6585 27.5514 44.6584V44.6575C27.187 44.6601 26.7869 44.5583 26.4079 44.4319C26.018 44.3019 25.5981 44.1285 25.1969 43.9641C24.788 43.7965 24.395 43.6363 24.028 43.5178C23.6564 43.3978 23.3491 43.3333 23.111 43.3333C22.8861 43.3333 22.6255 43.3988 22.3083 43.5237C21.9875 43.6499 21.6598 43.815 21.2751 43.9963C20.5386 44.3434 19.6366 44.7321 18.6296 44.6575C18.3542 44.637 18.1472 44.3967 18.1676 44.1213C18.1882 43.8461 18.4285 43.64 18.7038 43.6604C19.4233 43.7137 20.111 43.4395 20.8483 43.092C21.2004 42.9261 21.5808 42.7352 21.9421 42.593C22.2737 42.4625 22.6311 42.3547 22.9997 42.3362C21.3871 40.079 20.2531 37.4831 19.738 36.0344C19.6527 35.7943 19.5704 35.5652 19.53 35.3655C19.4855 35.1461 19.48 34.9115 19.5846 34.6672L19.5856 34.6643C19.6932 34.4179 19.8733 34.26 20.0651 34.1418C20.2417 34.0331 20.4706 33.9331 20.7145 33.8254L23.5173 32.5833L23.7897 29.052C23.8787 27.8978 23.9475 26.9835 24.0964 26.2717C24.2482 25.5459 24.4949 24.9626 24.9841 24.51C25.473 24.0569 26.0737 23.8559 26.8092 23.76C26.8331 23.7569 26.8572 23.7541 26.8815 23.7512L27.0661 22.2747C27.1684 21.4541 27.2508 20.7914 27.3835 20.2737C27.5198 19.742 27.7242 19.3005 28.112 18.9583C28.4991 18.6167 28.9617 18.4689 29.5055 18.3997C30.0354 18.3322 30.7034 18.3333 31.5309 18.3333H32.4694ZM31.9997 30.0002C31.8436 30.0003 31.6832 30.059 31.1071 30.3157H31.1061L21.1198 34.7395H21.1188C20.8499 34.8583 20.6947 34.9286 20.5895 34.9934C20.5426 35.0223 20.5209 35.0413 20.5114 35.051C20.5047 35.0579 20.5037 35.0612 20.5026 35.0637C20.5013 35.0673 20.5001 35.0707 20.4997 35.0774C20.4991 35.0893 20.5001 35.1165 20.5104 35.1672C20.5336 35.2815 20.5858 35.4332 20.6803 35.6995C21.2384 37.2687 22.5481 40.2254 24.3903 42.5198C24.4115 42.5462 24.429 42.5747 24.444 42.6038C24.8199 42.7307 25.2089 42.8875 25.5768 43.0383C25.9885 43.2071 26.3732 43.3666 26.7243 43.4836C27.0821 43.603 27.3558 43.661 27.5495 43.6584H27.5602C28.1016 43.6633 28.7213 43.3922 29.5104 43.0432C30.2423 42.7196 31.1155 42.3333 31.9997 42.3333C32.8839 42.3333 33.757 42.7195 34.4889 43.0432C35.278 43.3921 35.8978 43.6631 36.4391 43.6584C36.453 43.6583 36.4673 43.6594 36.4811 43.6604C37.2006 43.7137 37.8882 43.4395 38.6257 43.092C38.916 42.9553 39.2258 42.8014 39.528 42.6721C39.5463 42.6186 39.5726 42.5664 39.61 42.5198C41.4518 40.2259 42.7608 37.2699 43.319 35.7004L43.4313 35.3762C43.4591 35.2906 43.4772 35.2237 43.4889 35.1663C43.4992 35.1158 43.5002 35.0894 43.4997 35.0774C43.4993 35.0707 43.4989 35.067 43.4977 35.0637C43.4968 35.0615 43.4957 35.0589 43.4889 35.052C43.4794 35.0422 43.4574 35.0227 43.4098 34.9934C43.3042 34.9284 43.1491 34.8584 42.8805 34.7395L32.8952 30.3167H32.8942C32.3144 30.059 32.1556 30.0002 31.9997 30.0002ZM29.6051 24.6663C28.4204 24.6663 27.58 24.6676 26.9382 24.7512C26.3891 24.8228 26.0383 24.9497 25.7731 25.1526L25.6637 25.2444C25.3864 25.501 25.2054 25.8567 25.0759 26.4758C24.9434 27.1093 24.8778 27.9476 24.7868 29.1292L24.5553 32.1233L30.7009 29.4016L31.0563 29.2454C31.3944 29.101 31.6869 29.0003 31.9997 29.0002C32.4171 29.0002 32.8004 29.1804 33.3005 29.4026H33.2995L39.444 32.1233L39.2135 29.1292C39.1225 27.9478 39.057 27.1101 38.9245 26.4768C38.7948 25.8576 38.6136 25.5011 38.3356 25.2444L38.3346 25.2434C38.0578 24.9863 37.6887 24.833 37.0612 24.7512C36.4196 24.6676 35.5789 24.6663 34.3942 24.6663H29.6051ZM30.4303 19.3411C30.119 19.3485 29.8575 19.3631 29.6315 19.3918C29.1936 19.4476 28.9526 19.5499 28.7731 19.7083C28.5931 19.8673 28.4619 20.0941 28.3522 20.5217C28.239 20.9634 28.1649 21.5518 28.0592 22.3987V22.3997L27.8971 23.6838C28.3979 23.6682 28.9647 23.6663 29.6051 23.6663H34.3942C35.0345 23.6663 35.6016 23.6682 36.1022 23.6838L35.9411 22.3997V22.3987C35.8355 21.5518 35.7613 20.9634 35.6481 20.5217C35.5384 20.0938 35.4064 19.8673 35.2262 19.7083C35.0468 19.55 34.806 19.4476 34.3678 19.3918C34.1417 19.3631 33.8804 19.3485 33.569 19.3411L32.4694 19.3333H31.5309L30.4303 19.3411Z" fill="#045304"/>
</svg>
