<svg width="75" height="66" viewBox="0 0 75 66" fill="none" xmlns="http://www.w3.org/2000/svg">
<path fill-rule="evenodd" clip-rule="evenodd" d="M16.8591 27.1118L14.1905 27.0696L14.3097 31.7859L9.96222 31.7918L9.9777 27.139L7.15574 27.2239L7.15503 38.8482L10.0003 38.9018L9.9973 34.0151L14.1771 33.963L14.2119 38.8368L17.0245 38.8946L17.0134 27.4748L16.8591 27.1118Z" fill="#459704"/>
<path fill-rule="evenodd" clip-rule="evenodd" d="M20.1818 43.7061C20.2474 44.4529 22.4739 46.8662 22.8715 47.2813C25.9939 50.5418 30.6902 52.9248 35.657 53.3424C42.1959 53.8919 47.4659 51.6361 51.8728 47.5589C52.2041 47.2524 53.1947 46.2029 53.4085 45.7582C53.7904 45.5777 55.1055 43.458 55.436 42.8788C55.712 42.3953 55.6191 42.065 56.3721 42.0997C56.0538 43.2367 54.0974 45.8753 53.3905 46.6892C52.1493 48.1183 50.8719 49.2481 49.3103 50.3086C39.5654 56.9268 26.8149 54.3735 20.031 44.5923C19.6166 43.9947 18.8371 42.7174 18.6297 42.0923C19.3239 42.0744 19.2444 42.2543 19.5008 42.7352C19.7048 43.118 19.912 43.4958 20.1818 43.7061ZM50.2963 47.0804C49.7765 47.1391 44.862 52.6684 35.7662 51.8561C35.059 51.7929 31.1572 51.1868 30.5381 50.5152L30.4507 50.5367C29.7875 50.3544 26.6374 48.8627 26.231 48.1094C25.38 47.9565 22.8502 45.0864 22.0173 43.9145L20.9528 42.3401C20.8806 41.9652 21.2414 42.0745 21.6514 42.0773C22.0168 42.0797 22.3806 42.084 22.7469 42.0834C26.5688 42.078 53.002 41.9841 54.0949 42.1216C53.9026 42.5167 53.1722 43.7872 52.9069 43.94C52.6881 44.4047 52.082 45.1181 51.7043 45.5497C51.277 46.038 50.6317 46.5203 50.2963 47.0804ZM21.3333 22.9821L21.7001 22.5272C21.8263 22.3329 21.9407 22.1654 22.0492 22.0102C23.4996 19.9349 25.419 18.2664 27.6094 16.8326C27.9331 16.6206 28.4835 16.3242 28.8723 16.1942C28.9356 16.1309 28.7553 16.2456 29.0257 16.07C29.9632 15.461 32.7721 14.619 33.7471 14.4229C35.7082 14.0287 38.0431 13.9249 40.0374 14.2186C41.9081 14.4941 43.6803 15.005 45.2659 15.7189C46.3677 16.215 47.5322 16.8914 48.5065 17.5743C48.7499 17.7448 49.2782 18.0855 49.4097 18.343C50.0846 18.713 51.0016 19.6702 51.6024 20.3315C52.213 21.0034 51.8611 20.9457 52.2447 20.9745C52.4642 21.4619 52.9435 22.0008 53.2617 22.465C53.6187 22.9858 53.8477 23.3426 54.0938 23.9089L20.916 23.8831L21.3333 22.9821ZM53.0923 19.893C52.9864 19.5862 52.6339 19.2506 52.4015 18.9934L50.0082 16.831C46.0692 13.8243 41.4129 12.2645 35.9811 12.6288C34.1993 12.7484 32.3327 13.1609 30.8503 13.6766C27.6806 14.7794 25.6584 16.177 23.299 18.2751C22.8671 18.6591 20.7333 20.9674 20.6129 21.6249C20.1888 21.9127 19.9849 22.4458 19.6981 22.9166C19.3137 23.5481 19.4671 23.9146 18.6319 23.9033C19.0529 22.6425 20.8453 20.212 21.6682 19.2464C29.6937 9.82837 44.9277 9.481 53.3922 19.3039C54.2162 20.2603 56.0061 22.7234 56.376 23.9043C55.5045 23.9209 55.7704 23.5767 54.6935 21.9067C54.3799 21.4205 53.5603 20.1472 53.0923 19.893ZM0.588922 38.6319C0.927447 39.6687 1.69436 40.435 2.53595 41.0424C3.43099 41.6883 4.4278 41.973 5.73009 42.1019C6.17202 44.494 8.15116 48.5164 9.53429 50.6297C9.80737 51.047 10.0428 51.4195 10.357 51.8651C13.1831 55.8733 15.7248 58.2026 19.8433 60.9202C22.9019 62.9385 27.5839 64.8768 31.7436 65.5213C34.4004 65.933 36.763 66.0816 39.569 65.9575C40.8219 65.9021 42.0881 65.7006 43.265 65.5203C44.0388 65.4018 46.0756 64.7981 46.5722 64.8681C46.6854 64.7616 46.6116 64.8049 46.7931 64.7137L48.9151 63.9954C49.5346 63.7676 50.6381 63.2359 51.252 63.1088L58.5362 58.6031C58.7375 58.2027 60.367 56.8689 60.7869 56.4572C62.8456 54.4388 64.0585 52.7601 65.6086 50.4383L66.1989 49.4045C66.3342 49.1974 66.3472 49.183 66.5266 49.0291C66.566 48.7453 66.6013 48.6157 66.8244 48.4664C66.9396 47.9369 67.3253 47.3508 67.5135 46.9243C67.7388 46.4136 67.911 46.0093 68.1353 45.4846C68.4781 44.6831 69.0682 43.184 69.2279 42.252C69.5219 41.9447 70.6423 42.0797 71.9448 41.3801C75.4147 39.5164 74.9653 36.1226 74.9653 33.215C74.9653 30.6136 75.2706 28.5564 74.0694 26.6105C73.0633 24.981 71.5342 24.1892 69.2861 23.8886C68.6461 20.835 66.134 15.9514 64.1173 13.3683C61.8211 10.4275 60.22 8.77663 57.2373 6.47243C57.0175 6.30253 56.8845 6.21578 56.6641 6.07241L56.0389 5.55157C55.7117 5.48981 55.1639 5.0646 54.8426 4.85631C54.4545 4.60469 54.0147 4.36628 53.6096 4.13463C47.0851 0.403565 38.9412 -0.807526 31.4469 0.522459C25.9455 1.49883 19.8475 4.38748 15.9061 7.97149C15.3587 8.4693 14.6392 9.11744 13.9501 9.8087C13.6301 10.1297 12.377 11.5893 12.0573 11.7509C12.0143 11.9688 10.4775 13.9445 10.1319 14.4474C9.49192 15.3785 8.9429 16.2983 8.35766 17.3393C7.48365 18.894 6.10093 22.0332 5.72557 23.8899C4.12168 24.0939 3.2923 24.3436 2.22963 25.201C1.62326 25.6902 0.305176 27.0726 0.413298 27.9737C-0.183121 28.5212 0.0414338 32.5197 0.0414338 33.5399C0.0414338 34.7167 -0.116543 38.0224 0.588922 38.6319ZM68.692 42.4557C68.3414 43.2845 68.1159 44.1842 67.7732 45.0223C66.4912 48.158 64.9133 50.9236 62.6945 53.5946C62.4371 53.9044 62.1123 54.276 61.9024 54.54C61.6685 54.8345 61.3637 55.0926 61.1058 55.3666C55.3742 61.4546 46.9402 65.6433 37.2876 65.523C31.0346 65.4451 26.2276 63.928 21.1519 61.1312C19.7008 60.3316 16.3645 57.9338 15.3095 56.7816C14.7801 56.2034 14.2104 55.6662 13.6411 55.0865C11.5085 52.9145 9.48064 49.8363 8.08961 46.9825C7.53535 45.8453 6.47843 43.4058 6.25182 42.0849L6.79563 42.1282C7.124 42.8078 7.35624 43.8224 7.62912 44.5138C9.01943 48.036 11.1316 51.6156 13.649 54.3212C14.8065 55.5651 15.702 56.4599 16.8339 57.4238C31.5591 69.9632 54.2086 66.2756 64.3301 50.4599L66.5724 46.5387C66.7566 45.8981 67.1793 45.0461 67.4433 44.3567C67.6878 43.7185 67.9267 42.7046 68.2136 42.1313L68.761 42.079L68.692 42.4557ZM64.999 46.3395C64.59 47.4127 63.654 48.7662 63.1449 49.609C61.7231 51.963 60.1097 53.4488 58.4942 55.1439L55.8427 57.4855C55.174 57.7832 54.639 58.2904 54.0684 58.6326C53.7965 58.7956 53.5747 58.9614 53.2065 59.1762C52.8145 59.4048 52.6522 59.5968 52.2162 59.6106C52.1197 59.8321 52.2307 59.6727 52.0263 59.845C52.019 59.8512 51.7866 59.9915 51.7611 60.0055C51.3979 60.2037 51.4377 60.1976 51.0692 60.3017C50.7328 60.7206 47.0593 62.0076 46.3685 62.2162C42.6138 63.3505 38.3965 63.7852 34.4481 63.3655C32.9368 63.205 29.9732 62.7702 28.823 62.2395C27.1449 61.9172 24.9984 60.8399 23.4059 60.066C22.4023 59.5783 19.3585 57.7716 18.8392 57.0476C18.0338 56.9642 14.5359 53.1772 13.4991 51.8743L11.6119 49.2063C9.98238 46.7361 8.86053 43.5297 8.637 43.1806L8.33992 42.0896L17.8638 42.0842C18.1688 42.2545 18.8535 43.7086 19.1001 44.1143C19.6076 44.9493 19.9373 45.387 20.4326 46.0307C20.6403 46.3004 20.8884 46.6195 21.1518 46.9413C21.4469 47.302 21.5737 47.4444 21.9355 47.78C22.2255 48.0492 22.4647 48.3033 22.7455 48.5994C23.1365 49.0119 23.314 49.101 23.6264 49.401C24.1334 49.8046 24.4036 50.0359 24.8051 50.3355C27.3927 52.2668 30.5125 53.5361 33.7129 54.13C34.232 54.2264 35.0113 54.2677 35.4435 54.3867L36.4201 54.449C41.845 54.5581 46.3239 53.249 50.3847 50.1888C50.8571 49.8328 51.7052 49.2015 52.0594 48.8269C52.45 48.4139 53.1946 47.5502 53.6352 47.3491C53.717 47.0285 55.1827 45.2847 55.4601 44.8557L57.0368 42.1157L66.6627 42.0891C66.3096 43.581 65.6002 45.0546 64.999 46.3395ZM5.06001 40.4044C3.3876 39.8672 2.62951 39.2839 1.92004 37.737C1.56459 36.2779 1.65455 35.2076 1.65466 33.6483C1.65476 32.4005 1.54971 30.5924 1.68122 29.423C1.81684 27.8869 2.59688 26.865 3.53193 26.2646C4.93363 25.3643 5.85452 25.5145 7.77221 25.5153H67.237C69.1629 25.5153 70.1435 25.3827 71.4898 26.2631C73.9995 27.9044 73.3545 31.086 73.3545 34.2982C73.3545 35.9736 73.5206 37.3407 72.6363 38.6098C70.9728 40.9973 68.2305 40.4801 64.6327 40.4779L15.0426 40.4782C11.9771 40.4782 7.98497 40.6883 5.06001 40.4044ZM12.4606 15.4153L12.8162 15.1035C12.8259 15.0955 12.8506 15.0721 12.8707 15.0609C13.2642 13.9787 17.444 9.69258 18.2622 9.41198C18.6682 8.45599 24.9052 5.00634 25.5615 4.98719C26.0364 4.5542 28.6491 3.77907 29.4787 3.54322C30.8317 3.15867 32.6528 2.76808 34.1401 2.6754C34.5817 2.59225 35.0134 2.53111 35.4691 2.60126C35.8953 2.34247 40.3054 2.38569 40.6916 2.71698C43.5751 2.39501 50.1865 5.0091 53.0649 6.74452C58.5487 10.051 63.4263 15.2827 65.7881 21.4303L66.5203 23.3294L66.6645 23.9077L57.0368 23.8816C56.8376 23.6268 56.4544 22.8842 56.4293 22.5918C56.1487 22.3936 56.2075 22.4041 56.0261 22.0899L55.1513 20.6902C52.6481 17.1107 48.5589 13.9873 44.4205 12.6507C43.9151 12.4874 42.3938 12.1933 42.1158 11.935C41.5023 11.9709 40.5578 11.7529 39.8576 11.6674C38.294 11.4765 36.7026 11.4854 35.1351 11.667C34.4523 11.7461 33.4904 11.9722 32.8884 11.9302C32.6035 12.2135 31.2733 12.4334 30.835 12.571C30.176 12.7776 29.6553 13.0014 28.9486 13.2931C27.8494 13.7466 26.5373 14.4551 25.5611 15.1172C24.3043 15.9696 22.2429 17.7044 21.3445 18.8135C21.0271 19.2055 20.4927 19.9217 20.1704 20.2796C19.0206 21.7446 18.4144 23.317 17.9724 23.9116L8.34309 23.8724C8.56283 23.0819 8.81138 22.4242 9.11934 21.664C9.4353 20.8842 9.73473 20.3386 10.0102 19.6469C10.227 19.2796 10.4194 18.8267 10.646 18.4257C10.844 18.0753 11.1637 17.5948 11.3142 17.2449C11.672 16.771 12.2725 15.8565 12.4606 15.4153ZM68.1267 23.8379C68.0993 23.0884 66.9391 20.3481 66.5818 19.5754C62.3908 10.5115 53.9433 3.63385 43.6447 1.61824C35.0096 -0.0717179 26.8328 1.93232 20.0707 6.16796C17.8666 7.54854 15.4932 9.66277 13.7544 11.5656C13.2209 12.1494 11.4068 14.2205 11.2852 14.7968C10.9573 14.9798 11.1319 14.852 10.9258 15.1334C10.8722 15.2067 10.7339 15.4267 10.6681 15.528C10.4969 15.7921 10.3744 15.9908 10.2425 16.3504C9.90308 16.5524 9.43612 17.5829 9.22049 17.9829C8.9747 18.4388 8.44291 19.35 8.4545 19.7662C8.27016 19.9183 8.40105 19.7589 8.23333 20.0257C8.22922 20.0322 8.10243 20.3089 8.09474 20.3272L7.44005 21.9524C6.74802 23.863 7.12995 23.9183 6.25317 23.9062C6.62339 21.5719 9.19228 16.5637 10.6392 14.6277C13.153 11.2639 12.926 11.7187 15.4333 9.12256C16.6779 7.83395 19.6799 5.66216 21.2936 4.7924C26.4024 2.03893 31.1765 0.483237 37.5046 0.476375C48.4864 0.464291 58.1931 5.83636 64.3718 14.6245C65.8931 16.7881 68.334 21.4082 68.759 23.9256L68.1267 23.8379Z" fill="#459704"/>
<path fill-rule="evenodd" clip-rule="evenodd" d="M21.8262 33.2639L20.7705 36.1393L19.7352 38.8321L22.8033 38.9017L23.4217 36.7005L27.3564 36.7898L28.0203 38.8761L31.0635 38.8964L26.7575 27.1511L24.0754 27.1022L21.8262 33.2639ZM24.1403 34.5566L25.3792 30.525C25.9095 31.961 26.2345 32.9512 26.6232 34.4902L24.1403 34.5566Z" fill="#459704"/>
<path fill-rule="evenodd" clip-rule="evenodd" d="M64.297 29.5014C65.2032 29.907 65.1451 31.6145 64.6081 32.2144C64.001 32.8926 62.4035 32.7776 61.3404 32.6945L61.4112 29.3368C62.5765 29.1906 63.605 29.1916 64.297 29.5014ZM61.4704 34.92C64.0657 34.7169 65.7293 35.0532 67.0872 33.3851C68.5455 31.5938 67.8766 29.3727 66.2959 27.9777C64.88 26.7285 60.4511 27.0698 58.5516 27.119L58.5589 38.8778L61.4163 38.8914L61.4704 34.92Z" fill="#459704"/>
<path fill-rule="evenodd" clip-rule="evenodd" d="M35.2465 48.3096L35.4623 48.6138L35.1221 51.2311L37.5103 50.1084L39.8863 51.2305L39.4719 48.7382L40.4552 47.6423L41.3287 46.7173L38.7018 46.2255L38.4492 45.74L37.5046 44.0433L36.3277 46.3364L33.6859 46.7258L35.2465 48.3096Z" fill="#459704"/>
<path fill-rule="evenodd" clip-rule="evenodd" d="M42.9986 34.8896L40.2173 34.9102C40.0456 35.3457 40.1475 35.6306 39.8472 36.093C39.303 36.9308 37.7735 37.0543 36.989 36.5361C36.6009 36.2893 36.3664 35.8947 36.2248 35.4393C35.9823 34.6585 36.013 33.6988 36.0115 32.9983C36.0097 32.1181 36.0053 31.0739 36.3752 30.2918C36.6202 29.7737 37.0294 29.3707 37.7123 29.2065C38.7804 28.9496 40.0715 29.3223 40.1773 31.183L42.9709 31.176C42.9912 28.5623 40.8532 27.2024 38.7445 26.9609C36.9503 26.7553 35.3527 27.3478 34.2506 28.7937C32.9081 30.5549 32.7773 33.6421 33.4496 35.6811C33.7552 36.6079 34.244 37.4539 34.946 38.0437C35.888 38.8352 37.4627 39.1745 38.8869 39.0296C39.058 39.0121 39.4937 38.9198 39.7848 38.8393C41.7758 38.2889 42.8183 36.9397 42.9986 34.8896Z" fill="#459704"/>
<path fill-rule="evenodd" clip-rule="evenodd" d="M35.1319 22.0289L37.7211 20.8791L39.9045 22.1344L39.4249 19.8186C40.1577 18.8068 40.5474 18.4957 41.338 17.6417L38.717 17.1426L37.5459 14.7994L36.3064 17.1375L33.6862 17.5105L35.5361 19.3455L35.1319 22.0289Z" fill="#459704"/>
<path fill-rule="evenodd" clip-rule="evenodd" d="M55.8354 48.1643C56.4119 46.954 57.4048 46.9853 58.4856 47.802C59.7295 48.7421 59.5181 49.5472 58.7502 50.4132L55.8354 48.1643ZM54.7133 47.8745C54.5794 48.3061 54.5175 48.1818 54.3644 48.6569C54.7353 48.7721 55.8948 49.6594 56.2028 50.0486C56.7439 50.2135 58.1023 51.5419 58.7731 51.8671C59.9719 50.699 61.0723 48.946 59.8102 47.4557C58.479 45.8837 56.6626 45.4696 55.1446 47.4707C55.0203 47.6345 54.9481 47.7765 54.7133 47.8745Z" fill="#459704"/>
<path fill-rule="evenodd" clip-rule="evenodd" d="M22.2813 10.1095C23.2164 9.59902 23.9933 10.6792 24.3493 11.2519C24.7836 11.9502 25.0713 13.0125 24.1955 13.4288C22.8044 14.0903 20.7019 10.9718 22.2813 10.1095ZM20.6085 11.0437C20.5544 13.1098 22.7738 15.5601 24.8847 14.1209C26.8528 12.779 25.4241 10.0983 24.1189 9.31206C23.2729 8.80248 22.232 8.87735 21.45 9.49692C20.9347 9.90523 20.6908 10.4074 20.6085 11.0437Z" fill="#459704"/>
<path fill-rule="evenodd" clip-rule="evenodd" d="M18.5806 14.1542C19.9095 14.6861 21.2002 16.9361 19.5431 17.3243C18.6893 17.5244 17.5257 16.5968 17.1171 15.6653C16.8983 15.1664 16.9172 14.729 17.2888 14.3813C17.6815 14.0139 18.0778 13.953 18.5806 14.1542ZM15.948 15.6498C16.0415 16.372 16.404 16.8664 17.0355 17.4675C17.6642 18.0659 18.7102 18.6597 19.8235 18.2732C20.6353 17.9913 21.3955 17.1778 21.397 16.099C21.3993 14.4761 19.2638 12.6759 17.6521 13.0554C16.4402 13.3409 15.7925 14.4488 15.948 15.6498Z" fill="#459704"/>
<path fill-rule="evenodd" clip-rule="evenodd" d="M38.3726 9.64894C38.6597 9.32779 38.7693 8.86449 38.5758 8.21675C38.4163 7.68269 37.8742 7.34013 37.2795 7.10797C36.6589 6.86567 35.8885 6.8541 35.6591 6.33161C35.4454 5.82612 35.8894 5.53158 36.4242 5.49851C37.1296 5.45478 37.1865 5.83411 37.5045 6.25091L38.5293 6.20554C38.4217 5.51796 37.9462 4.83418 37.3019 4.67903C36.517 4.48999 35.3785 4.42669 34.6809 5.37664C34.4191 5.73302 34.3489 6.20227 34.5411 6.7139C35.0583 8.08977 37.6064 7.67193 37.4886 8.82588C37.4369 9.3326 36.8831 9.4559 36.3163 9.38073C35.5533 9.27965 35.5393 9.00438 35.4428 8.54077L34.4002 8.56402C34.3746 9.21011 34.6444 9.58832 35.0226 9.84803C35.8858 10.4407 37.6242 10.4862 38.3726 9.64894Z" fill="#459704"/>
<path fill-rule="evenodd" clip-rule="evenodd" d="M48.8152 13.0659L51.9525 15.1469L52.3697 14.3933L50.2771 12.9577L51.0424 11.7682L52.9134 12.874L53.3728 12.2184L51.6263 11.0077L52.2668 9.9109L54.4325 11.2518L54.95 10.5897L54.8662 10.509L54.2287 10.0168L51.7689 8.47717L48.8152 13.0659Z" fill="#459704"/>
<path fill-rule="evenodd" clip-rule="evenodd" d="M56.5026 54.1222L55.9517 53.477L53.9042 54.9622L53.0631 53.8175L54.7115 52.4187L54.2155 51.8168L52.4442 53.0784L51.7066 52.064C52.3259 51.5232 52.9935 51.1338 53.6538 50.6197L53.1722 49.7627L50.229 52.064L53.5038 56.4231L56.5026 54.1222Z" fill="#459704"/>
<path fill-rule="evenodd" clip-rule="evenodd" d="M41.3965 8.43167L42.4227 6.62046L42.6947 8.64335L41.3965 8.43167ZM39.1027 10.1451L40.3543 10.33L40.815 9.31546L42.8544 9.70789L42.9994 10.8249L44.1861 11.0345L43.1617 5.17527L42.0421 4.99329L39.1027 10.1451Z" fill="#459704"/>
<path fill-rule="evenodd" clip-rule="evenodd" d="M22.0959 56.8549L22.5798 56.1805L20.6231 54.5556L21.4186 53.4529L23.181 54.6975L23.7597 53.9588L22.0866 52.714L22.8555 51.6825L24.9715 53.1806L25.3822 52.4973L22.677 50.3703L22.4175 50.2284L19.1575 54.6638L22.0959 56.8549Z" fill="#459704"/>
<path fill-rule="evenodd" clip-rule="evenodd" d="M17.5601 50.4296C17.3602 50.5851 17.2101 50.7364 16.6871 50.6469C16.2263 50.5935 14.8515 49.5343 16.6991 48.1955C17.1335 47.8807 17.8644 47.1034 18.6434 47.4875C19.9518 48.1327 18.936 49.3952 18.9351 49.3971L19.5898 50.1435C20.2885 49.7968 20.4663 48.7724 20.2458 48.0596C20.0639 47.4716 19.607 46.9788 19.2128 46.7075C17.9215 45.8188 16.615 46.7091 15.8045 47.4064C12.9528 49.8596 16.5878 52.8588 18.1485 51.3057L17.5601 50.4296Z" fill="#459704"/>
<path fill-rule="evenodd" clip-rule="evenodd" d="M44.7404 11.3575L45.7435 11.7402L46.6804 9.66857L48.6815 10.4653L49.076 9.59433L47.0791 8.82647L47.5745 7.48798L49.8751 8.34412L50.2503 7.5355L46.9453 6.19568L44.7404 11.3575Z" fill="#459704"/>
<path fill-rule="evenodd" clip-rule="evenodd" d="M15.8326 18.4254L14.717 20.2591L13.6304 19.6395L14.8606 17.3922L14.0364 16.934L12.184 20.1073L16.9822 22.9059L17.5008 21.8751L15.6137 20.7573L16.6332 18.9157L15.8326 18.4254Z" fill="#459704"/>
<path fill-rule="evenodd" clip-rule="evenodd" d="M42.3925 57.3327L43.3611 60.7862C43.6461 60.7484 43.737 60.7209 43.9374 60.6655C44.1113 60.6173 44.2402 60.5665 44.4761 60.5357L43.8931 58.3194C46.5549 57.2417 45.8315 58.6057 45.9082 57.0288C45.6589 56.8393 45.7814 56.8428 45.4158 56.9074L43.6405 57.3978L43.2732 56.0308L45.6305 55.3121L45.4564 54.4603L41.9198 55.4335L42.3925 57.3327Z" fill="#459704"/>
<path fill-rule="evenodd" clip-rule="evenodd" d="M59.4105 20.2566L62.8572 19.9991L62.2701 19.017L59.5582 19.3108L60.9966 17.0742L60.2373 16.0281L58.4732 19.078L56.5726 20.4343L57.1349 21.4428L59.4105 20.2566Z" fill="#459704"/>
<path fill-rule="evenodd" clip-rule="evenodd" d="M27.9484 10.3572L26.9996 7.65469C27.7659 7.27762 28.4902 7.10967 29.0697 7.94349L29.4219 8.47315C29.5455 9.05299 29.8741 9.70103 29.5536 10.3331C29.3525 10.7297 28.7646 11.0319 28.2726 11.0751L27.9484 10.3572ZM30.5569 8.4073C30.2797 7.47906 29.6163 6.57448 28.5546 6.41411C27.7446 6.29183 26.1472 6.83696 25.6083 7.21618L27.5264 12.3899C27.6925 12.3395 27.8209 12.3061 27.9855 12.2368L28.4236 11.9578C29.9027 12.0571 31.5182 9.8699 30.5569 8.4073Z" fill="#459704"/>
<path fill-rule="evenodd" clip-rule="evenodd" d="M55.9196 15.851L57.5795 14.3093L58.7731 15.413L59.3975 14.7777L58.6037 13.9948L56.2461 11.5753L55.6513 12.1993L56.7137 13.3909L53.4841 16.6408L54.2155 17.4363L55.9196 15.851Z" fill="#459704"/>
<path fill-rule="evenodd" clip-rule="evenodd" d="M36.1847 55.8293L32.0225 55.2783L31.9994 56.2136L33.6307 56.3914L33.0183 61.0223L34.1711 61.1455L34.7747 56.6366L36.4183 56.7656L36.6146 55.8884L36.1847 55.8293Z" fill="#459704"/>
<path fill-rule="evenodd" clip-rule="evenodd" d="M44.0496 20.62L43.8712 22.0578L45.302 21.3426L46.7115 22.0455L46.5076 20.5483L47.5571 19.3891L45.9975 19.1037L45.3101 17.7307L44.582 19.1154L42.9872 19.5088L44.0496 20.62Z" fill="#459704"/>
<path fill-rule="evenodd" clip-rule="evenodd" d="M28.9424 19.0944L27.3488 19.3635L28.4479 20.5406L28.2145 22.0322L29.5908 21.4188L31.0687 22.0393L30.8973 20.5261L31.9329 19.3213L30.3285 18.9808L29.6815 17.7285L28.9424 19.0944Z" fill="#459704"/>
<path fill-rule="evenodd" clip-rule="evenodd" d="M28.3238 48.2679L29.7395 47.6814L31.1498 48.2821L30.9331 46.7559L32.0253 45.5369L30.4324 45.3141L29.6987 44.0286L29.0377 45.3421L27.4436 45.6055L28.5595 46.6409L28.3238 48.2679Z" fill="#459704"/>
<path fill-rule="evenodd" clip-rule="evenodd" d="M47.6571 45.5906L46.0798 45.3298L45.3014 43.9399L44.6721 45.2567L43.0776 45.6085L44.124 46.7646L43.9566 48.2539L45.4051 47.6517L46.7746 48.2843L46.5492 46.7579C47.0524 46.3067 47.2575 45.9912 47.6571 45.5906Z" fill="#459704"/>
<path fill-rule="evenodd" clip-rule="evenodd" d="M39.0241 61.3212L40.04 61.2503L39.6829 55.7097L38.5365 55.8557L39.0241 61.3212Z" fill="#459704"/>
<path fill-rule="evenodd" clip-rule="evenodd" d="M49.55 58.5818L50.6758 58.1763L48.2455 53.2039L47.3525 53.5721L49.55 58.5818Z" fill="#459704"/>
<path fill-rule="evenodd" clip-rule="evenodd" d="M27.6292 54.6791C28.0096 54.7065 28.6879 54.9964 28.8711 55.1608C29.2856 55.5325 29.1974 56.4794 28.374 56.552C28.2088 56.5665 28.0918 56.5719 27.996 56.5382L27.0447 56.2032L27.6292 54.6791ZM29.3668 57.2699C30.2265 56.8636 30.4953 55.7079 30.008 54.9146C29.8278 54.6212 29.545 54.4132 29.1533 54.222C28.5636 53.9341 27.5968 53.519 26.9345 53.3175L24.8419 58.3018L25.877 58.8675L26.6278 57.0126L27.4915 57.3277L27.6749 59.3214C27.7453 59.8536 28.4513 59.9988 28.8643 60.1129L28.6036 57.5064L29.3668 57.2699Z" fill="#459704"/>
<path fill-rule="evenodd" clip-rule="evenodd" d="M55.5559 34.8896L52.7747 34.9102C52.603 35.3457 52.7048 35.6306 52.4046 36.093C51.8604 36.9308 50.3309 37.0543 49.5464 36.5361C49.1582 36.2893 48.9237 35.8947 48.7822 35.4393C48.5397 34.6585 48.5703 33.6988 48.5689 32.9983C48.567 32.1181 48.5626 31.0739 48.9325 30.2918C49.1776 29.7737 49.5868 29.3707 50.2697 29.2065C51.3378 28.9496 52.6288 29.3223 52.7347 31.183L55.5282 31.176C55.5486 28.5623 53.4106 27.2024 51.3019 26.9609C49.5076 26.7553 47.9101 27.3478 46.8079 28.7937C45.4654 30.5549 45.3346 33.6421 46.007 35.6811C46.3126 36.6079 46.8014 37.4539 47.5034 38.0437C48.4454 38.8352 50.02 39.1745 51.4443 39.0296C51.6154 39.0121 52.0511 38.9198 52.3422 38.8393C54.3332 38.2889 55.3757 36.9397 55.5559 34.8896Z" fill="#459704"/>
</svg>
