<svg width="48" height="48" viewBox="0 0 48 48" fill="none" xmlns="http://www.w3.org/2000/svg">
<rect width="48" height="48" rx="24" fill="#EEF9E6"/>
<path d="M20.0001 15.3334C20.0001 15.1566 20.0703 14.987 20.1953 14.862C20.3204 14.737 20.4899 14.6667 20.6667 14.6667H27.3334C27.5102 14.6667 27.6798 14.737 27.8048 14.862C27.9298 14.987 28.0001 15.1566 28.0001 15.3334C28.0001 15.5102 27.9298 15.6798 27.8048 15.8048C27.6798 15.9298 27.5102 16.0001 27.3334 16.0001H20.6667C20.4899 16.0001 20.3204 15.9298 20.1953 15.8048C20.0703 15.6798 20.0001 15.5102 20.0001 15.3334ZM18.0001 18.6667C17.8233 18.6667 17.6537 18.737 17.5287 18.862C17.4037 18.987 17.3334 19.1566 17.3334 19.3334C17.3334 19.5102 17.4037 19.6798 17.5287 19.8048C17.6537 19.9298 17.8233 20.0001 18.0001 20.0001H30.0001C30.1769 20.0001 30.3465 19.9298 30.4715 19.8048C30.5965 19.6798 30.6667 19.5102 30.6667 19.3334C30.6667 19.1566 30.5965 18.987 30.4715 18.862C30.3465 18.737 30.1769 18.6667 30.0001 18.6667H18.0001ZM17.3334 22.0001C17.3334 21.8233 17.4037 21.6537 17.5287 21.5287C17.6537 21.4037 17.8233 21.3334 18.0001 21.3334H30.0001C30.1769 21.3334 30.3465 21.4037 30.4715 21.5287C30.5965 21.6537 30.6667 21.8233 30.6667 22.0001C30.6667 22.1769 30.5965 22.3465 30.4715 22.4715C30.3465 22.5965 30.1769 22.6667 30.0001 22.6667H18.0001C17.8233 22.6667 17.6537 22.5965 17.5287 22.4715C17.4037 22.3465 17.3334 22.1769 17.3334 22.0001ZM18.0001 24.0001C17.8233 24.0001 17.6537 24.0703 17.5287 24.1953C17.4037 24.3204 17.3334 24.4899 17.3334 24.6667C17.3334 24.8436 17.4037 25.0131 17.5287 25.1382C17.6537 25.2632 17.8233 25.3334 18.0001 25.3334H30.0001C30.1769 25.3334 30.3465 25.2632 30.4715 25.1382C30.5965 25.0131 30.6667 24.8436 30.6667 24.6667C30.6667 24.4899 30.5965 24.3204 30.4715 24.1953C30.3465 24.0703 30.1769 24.0001 30.0001 24.0001H18.0001Z" fill="#045304"/>
<path fill-rule="evenodd" clip-rule="evenodd" d="M33.3334 32.0001C33.3334 32.7073 33.0525 33.3856 32.5524 33.8857C32.0523 34.3858 31.374 34.6667 30.6667 34.6667H28.6667V37.3334L26.6667 36.3334L24.6667 37.3334V34.6667H17.3334C16.6262 34.6667 15.9479 34.3858 15.4478 33.8857C14.9477 33.3856 14.6667 32.7073 14.6667 32.0001V13.3334C14.6667 12.6262 14.9477 11.9479 15.4478 11.4478C15.9479 10.9477 16.6262 10.6667 17.3334 10.6667H30.6667C31.374 10.6667 32.0523 10.9477 32.5524 11.4478C33.0525 11.9479 33.3334 12.6262 33.3334 13.3334V32.0001ZM17.3334 12.0001C16.9798 12.0001 16.6407 12.1406 16.3906 12.3906C16.1406 12.6407 16.0001 12.9798 16.0001 13.3334V32.0001C16.0001 32.3537 16.1406 32.6928 16.3906 32.9429C16.6407 33.1929 16.9798 33.3334 17.3334 33.3334H24.6667V31.7641C24.3273 31.3792 24.1061 30.9045 24.0298 30.397C23.9534 29.8896 24.0251 29.3708 24.2362 28.9031C24.4474 28.4353 24.789 28.0385 25.2201 27.7601C25.6513 27.4817 26.1536 27.3336 26.6667 27.3336C27.1799 27.3336 27.6822 27.4817 28.1134 27.7601C28.5445 28.0385 28.8861 28.4353 29.0972 28.9031C29.3084 29.3708 29.3801 29.8896 29.3037 30.397C29.2274 30.9045 29.0062 31.3792 28.6667 31.7641V33.3334H30.6667C31.0204 33.3334 31.3595 33.1929 31.6096 32.9429C31.8596 32.6928 32.0001 32.3537 32.0001 32.0001V13.3334C32.0001 12.9798 31.8596 12.6407 31.6096 12.3906C31.3595 12.1406 31.0204 12.0001 30.6667 12.0001H17.3334ZM27.3334 32.5827C26.8961 32.6957 26.4374 32.6957 26.0001 32.5827V35.1761L26.6667 34.8427L27.3334 35.1761V32.5827ZM26.6667 31.3334C27.0204 31.3334 27.3595 31.1929 27.6096 30.9429C27.8596 30.6928 28.0001 30.3537 28.0001 30.0001C28.0001 29.6465 27.8596 29.3073 27.6096 29.0573C27.3595 28.8072 27.0204 28.6667 26.6667 28.6667C26.3131 28.6667 25.974 28.8072 25.7239 29.0573C25.4739 29.3073 25.3334 29.6465 25.3334 30.0001C25.3334 30.3537 25.4739 30.6928 25.7239 30.9429C25.974 31.1929 26.3131 31.3334 26.6667 31.3334Z" fill="#045304"/>
</svg>
