<svg width="194" height="67" viewBox="0 0 194 67" fill="none" xmlns="http://www.w3.org/2000/svg">
<path d="M58.4893 28.7961C58.9746 29.5466 58.9409 30.5259 59.0399 31.4085C59.0062 33.2716 59.1683 35.4935 58.844 37.3896C58.6819 38.1731 58.1651 38.9919 57.3578 39.2846C56.0652 39.8745 54.32 39.7105 53.1254 39.0238C52.1221 38.3052 51.9949 37.0935 51.8643 35.9513C51.7675 33.6964 51.6053 31.3094 52.219 29.2505C52.7031 27.9761 54.0295 27.6493 55.2241 27.5525C56.4852 27.5536 57.7136 27.7495 58.4893 28.7961Z" fill="#022899"/>
<path d="M41.5225 57.3929C41.6205 57.5888 41.3626 57.525 41.2973 57.5888C37.8711 58.3416 34.0598 58.3757 30.6324 57.525C30.5694 57.3599 30.7945 57.328 30.8925 57.2289C33.8976 55.236 38.5849 55.236 41.5225 57.3929ZM29.9546 56.6402C29.7936 56.8383 29.5346 57.0331 29.3094 57.1629C26.5948 56.4432 24.0727 55.2019 21.7465 53.5016V53.4071C22.5234 52.914 23.2969 52.3924 24.1391 52.0325C25.9789 53.8956 27.8862 55.2998 29.9546 56.6402ZM50.4422 53.4071C48.6317 54.8762 46.5318 55.8567 44.4004 56.6743L42.8804 57.1629C42.6226 57.0331 42.3963 56.8383 42.1699 56.6402L42.2341 56.5422C44.3014 55.2998 46.1749 53.7988 47.955 51.9995C48.8254 52.3605 49.6665 52.8502 50.4422 53.4071ZM46.9845 51.5428C45.9509 52.7511 44.6256 53.7977 43.3972 54.6803C42.6541 55.1369 41.911 55.6278 41.1341 56.0184L39.7458 55.4L39.8415 55.1677C41.0068 53.5699 42.0393 51.9335 42.9446 50.2036L43.0414 50.1364C44.432 50.4644 45.7572 50.921 46.9845 51.5428ZM29.2115 50.1706C30.1483 51.9665 31.3114 53.6656 32.4756 55.367C32.0218 55.6278 31.4735 55.7906 31.022 56.0526C28.8872 54.973 26.8526 53.4697 25.1389 51.6727V51.5736C26.4 50.9529 27.7252 50.4951 29.082 50.1353L29.2115 50.1706ZM41.9763 49.8756L42.0078 49.9735C41.1037 51.7376 39.9721 53.439 38.7448 55.039C38.1942 55.1039 37.6774 54.875 37.1291 54.8443L36.5785 54.7759C36.5143 52.8491 36.4817 51.1488 36.5785 49.2208C38.4206 49.2561 40.2637 49.4508 41.9763 49.8756ZM35.6113 54.7441C34.9313 54.9092 34.1893 54.9092 33.543 55.0732C32.2177 53.4709 31.1188 51.7376 30.182 49.9405L30.3419 49.8084C32.0218 49.4816 33.767 49.2219 35.5775 49.2219L35.6113 54.7441ZM28.8241 47.229C28.501 47.229 28.1452 47.1618 27.92 47.2609L28.7273 49.1878L28.6305 49.2846C27.1758 49.7116 25.7548 50.2355 24.3643 50.8231L24.2337 50.7559C23.3295 49.7435 22.4569 48.6332 21.7465 47.5217C21.5843 46.9671 20.9392 47.2916 20.5811 47.2279C21.358 48.6662 22.3928 49.9394 23.4275 51.2456C22.5538 51.7683 21.6823 52.3594 20.777 52.783C18.8393 51.2786 17.0265 49.3187 15.672 47.2598C15.2813 47.1937 15.0235 47.2279 14.6373 47.2598C16.9635 50.9848 20.58 54.2532 24.3632 56.1812L24.3947 56.1505L24.4285 56.2484C26.981 57.5239 29.6956 58.4372 32.569 58.8301C42.4908 60.1705 51.96 55.8237 57.4524 47.2609C57.1619 47.229 56.7419 47.229 56.4188 47.2609C55.062 49.2561 53.3483 51.1807 51.4736 52.6885L51.1505 52.6543C50.3432 52.1316 49.4706 51.7057 48.6948 51.1818C49.7295 49.9086 50.7316 48.6343 51.5074 47.229H50.5053C49.6969 48.4384 48.8569 49.7128 47.7907 50.7912C46.3686 50.2024 45.076 49.6797 43.6224 49.2857L43.4614 49.1582C43.69 48.5033 44.1088 47.8827 44.2372 47.2301H43.3657L42.492 48.9942C40.5869 48.5671 38.4859 48.3405 36.547 48.2107C36.449 47.9168 36.5796 47.4909 36.449 47.2313H35.6113C35.5438 47.6219 35.7059 47.918 35.5134 48.2448C33.5092 48.3416 31.5714 48.5682 29.6967 48.9646L28.8241 47.229ZM8.33648 22.1272L6.33343 22.158C6.30078 23.8924 6.30078 25.9172 6.33343 27.6824C7.43122 27.7165 8.46597 27.6824 9.53336 27.7826V38.894L9.50071 39.3518L6.30078 39.4167C6.23547 41.2468 6.23547 43.0131 6.30078 44.809H20.553V39.4167C19.4844 39.3518 18.2898 39.4475 17.2551 39.3188L17.2889 27.8463L17.3519 27.7495L20.5518 27.7165C20.5811 25.8534 20.6149 23.8605 20.5181 22.158L8.33648 22.1272ZM63.2397 24.0882C59.0411 21.3414 52.6401 21.1467 48.3108 23.6316C45.952 24.874 44.4016 27.3248 43.9163 29.8393C43.0437 33.9925 43.2689 38.9259 46.372 42.0314C49.9907 45.2998 55.259 46.0184 59.9452 44.6792C60.1659 44.6325 60.8741 44.4492 61.3571 44.1827L61.4945 44.1223C62.9481 43.5017 64.3398 42.4881 65.3723 41.1158C67.7649 37.5195 67.9248 32.126 66.4723 28.0764C65.8879 26.5082 64.6922 25.1018 63.2397 24.0882ZM35.8365 23.0417C32.2819 21.5066 27.3064 21.3414 24.0727 23.7284C21.9728 25.2977 21.3265 28.1071 21.8771 30.592C22.2959 32.9448 24.4938 34.6804 26.5948 35.4946C29.4716 36.5401 32.4756 37.2917 35.385 38.3075C35.6755 38.4362 36.0628 38.73 35.9987 39.0899C35.9987 39.3848 35.707 39.55 35.4818 39.6809C32.4452 40.5282 29.1484 39.8768 26.9494 37.5217C26.6905 37.1949 26.5283 36.802 26.2716 36.4763L21.9086 36.5093C21.8433 39.1571 21.8106 42.1954 21.9086 44.8102L26.7547 44.7771L26.82 43.2078C27.3706 43.4698 27.92 43.8 28.4683 44.0927C31.8282 45.531 36.1585 45.8567 39.4891 44.0927C41.911 42.7193 43.2036 40.0715 42.8489 37.2279C42.492 34.4503 39.9079 31.9324 37.289 31.248L29.4716 28.9259L28.8872 28.6321C28.6294 28.4021 28.4683 28.1094 28.5336 27.7507C29.1473 26.6711 30.5694 26.9979 31.6356 27.0321C33.8976 27.3567 36.2238 28.1424 37.5502 30.2663C38.9711 30.2663 40.6184 30.2982 42.1699 30.2344C42.2341 27.5537 42.1384 25.1986 42.1046 22.4871C40.6499 22.454 38.8721 22.454 37.4196 22.5201C37.352 22.9107 37.4826 23.4687 37.3228 23.8616L35.8365 23.0417ZM38.4543 11.9291C39.7143 13.5633 40.9415 15.2305 41.7815 17.0276C40.0385 17.4535 38.2618 17.6824 36.449 17.6824C36.3849 15.9503 36.4175 14.02 36.449 12.2241C37.0964 12.125 37.8069 12.0282 38.4543 11.9291ZM35.4177 12.191C35.5134 13.8901 35.4481 15.8512 35.4481 17.6482C34.5439 17.7792 33.7355 17.6152 32.8325 17.5503C31.9599 17.4205 30.8598 17.3214 29.9895 17.0276C30.9263 15.2317 32.0229 13.4995 33.3493 11.8972L35.4177 12.191ZM32.2819 11.5704L32.1851 11.8323C30.9567 13.3993 29.9895 15.0996 29.0178 16.7657L28.8872 16.7975C27.5642 16.4388 26.2705 16.0129 25.0432 15.4594L25.1074 15.2636C26.8864 13.5291 28.7611 12.0908 30.8272 10.9816C31.3113 11.1775 31.7966 11.3415 32.2819 11.5704ZM46.8223 15.2954L46.7582 15.3945C45.4982 15.9503 44.2045 16.4741 42.8162 16.7668C41.8141 15.0347 40.7175 13.3025 39.4891 11.6364C39.9394 11.3745 40.4889 11.1786 40.9742 10.9178C43.0741 11.9952 45.1109 13.5291 46.8223 15.2954ZM29.8578 10.3598C27.8558 11.6353 25.8843 13.1374 24.0727 14.9686C23.2023 14.6406 22.3939 14.1509 21.6159 13.5952V13.5291C23.6538 11.994 25.9147 10.8495 28.3062 10.066L28.599 9.87012V9.93618C28.8568 10.0011 29.0516 9.70727 29.2779 9.90315C29.4716 10.0671 29.6967 10.197 29.8578 10.3598ZM50.2171 13.4654L50.1518 13.5963L47.9213 14.8707H47.7614C46.0477 13.1055 44.0435 11.5715 42.0089 10.361C42.0742 10.1321 42.3974 9.9692 42.6226 9.80635C45.3372 10.5238 47.8886 11.7674 50.2171 13.4654ZM41.3289 9.47837V9.54328C38.5174 11.6342 33.9629 11.8323 30.9893 9.90201C30.8261 9.77219 30.5052 9.70613 30.4725 9.47723C33.8976 8.6607 37.9375 8.59465 41.3289 9.47837ZM38.0006 8.00816C37.1302 7.90908 36.0617 7.87606 35.126 7.97399C34.7714 7.94211 34.3514 7.97399 33.9292 8.00816C26.1725 8.62768 19.0341 12.7137 14.572 19.6765C14.8962 19.6423 15.2824 19.7733 15.6067 19.6423C16.3836 18.5308 17.254 17.4535 18.2245 16.4069C19.0656 15.5893 19.8402 14.8046 20.7455 14.2181C21.5843 14.7739 22.5245 15.2317 23.3295 15.7544C22.3263 17.0276 21.295 18.3031 20.5518 19.6765C20.7782 19.7733 21.197 19.7402 21.5213 19.6765C22.3263 18.4671 23.2012 17.2565 24.2337 16.1792C25.6242 16.7019 26.981 17.2565 28.4042 17.6494L28.5336 17.7803L27.7263 19.6776C28.081 19.7414 28.3073 19.7072 28.662 19.6776C28.9548 19.1207 29.1788 18.4989 29.5031 17.9455C31.3778 18.3703 33.3493 18.5992 35.3512 18.6641C35.6113 18.893 35.4177 19.3827 35.5134 19.6776H36.3848C36.4817 19.3485 36.3533 18.9898 36.4817 18.6971C38.3564 18.5992 40.3268 18.4021 42.1384 17.9455L42.2983 17.9762L43.172 19.6776C43.4614 19.6776 43.8499 19.7414 44.0773 19.6116L43.2677 17.7154L43.333 17.6494C44.8193 17.2565 46.2087 16.6689 47.6296 16.0801C48.6317 17.1597 49.5685 18.434 50.4096 19.6776C50.7631 19.6776 51.1201 19.7072 51.3802 19.6116C50.9928 18.893 50.5076 18.1732 49.9896 17.5514C49.5685 16.9308 49.117 16.375 48.5664 15.7863V15.6234L50.8284 14.2842L51.1516 14.1532C53.1231 15.6906 54.8695 17.5514 56.2566 19.6116C56.6439 19.6116 56.9693 19.7414 57.2925 19.5785C52.9621 12.9119 45.8214 8.62881 38.0974 8.0093L38.0659 8.07535L38.0006 8.00816ZM72.0604 67H0V0H72.0604V67Z" fill="#022899"/>
<path d="M80.8484 8.16187V62.8251" stroke="#022899"/>
<path d="M88.7107 12.2958H89.9943V22.0475H88.7107V12.2958Z" fill="#022899"/>
<path d="M91.9669 14.9879H93.0478V16.1073H93.0749C93.5613 15.2327 94.3438 14.8228 95.3436 14.8228C97.1801 14.8228 97.7475 15.8887 97.7475 17.4045V22.0485H96.5991V17.2689C96.5991 16.408 96.0598 15.8477 95.1815 15.8477C93.7899 15.8477 93.1143 16.7906 93.1143 18.0604V22.0485H91.9658L91.9669 14.9879Z" fill="#022899"/>
<path d="M101.074 14.9879H102.463V16.0117H101.074V20.3961C101.074 20.9291 101.222 21.0248 101.938 21.0248H102.464V22.0486H101.587C100.399 22.0486 99.9263 21.8026 99.9263 20.5055V16.0117H98.7373V14.9879H99.9263V12.8708H101.075L101.074 14.9879Z" fill="#022899"/>
<path d="M109.69 19.8085C109.38 21.3653 108.273 22.2114 106.707 22.2114C104.478 22.2114 103.424 20.6547 103.357 18.4966C103.357 16.3796 104.735 14.8217 106.639 14.8217C109.109 14.8217 109.865 17.1574 109.8 18.8645H104.572C104.532 20.0944 105.22 21.1865 106.747 21.1865C107.693 21.1865 108.354 20.723 108.557 19.8074L109.69 19.8085ZM108.584 17.8418C108.53 16.736 107.706 15.8477 106.572 15.8477C105.37 15.8477 104.654 16.7633 104.573 17.8418H108.584Z" fill="#022899"/>
<path d="M110.949 14.988H112.03V16.4764H112.057C112.61 15.3433 113.38 14.783 114.622 14.824V16.0539C112.772 16.0539 112.098 17.1187 112.098 18.9078V22.0498H110.948L110.949 14.988Z" fill="#022899"/>
<path d="M115.732 14.9879H116.812V16.1073H116.839C117.326 15.2327 118.109 14.8228 119.108 14.8228C120.945 14.8228 121.512 15.8887 121.512 17.4045V22.0485H120.363V17.2689C120.363 16.408 119.824 15.8477 118.946 15.8477C117.555 15.8477 116.88 16.7906 116.88 18.0604V22.0485H115.731L115.732 14.9879Z" fill="#022899"/>
<path d="M129.429 22.0202C129.227 22.1431 128.97 22.2115 128.606 22.2115C128.012 22.2115 127.633 21.8846 127.633 21.1194C127 21.8698 126.148 22.2115 125.176 22.2115C123.907 22.2115 122.866 21.6387 122.866 20.2322C122.866 18.6345 124.042 18.2928 125.23 18.0605C126.5 17.8145 127.579 17.8954 127.579 17.0219C127.579 16.0118 126.756 15.8478 126.027 15.8478C125.055 15.8478 124.339 16.1484 124.285 17.187H123.136C123.204 15.4389 124.54 14.824 126.093 14.824C127.35 14.824 128.713 15.111 128.713 16.7634V20.3962C128.713 20.9417 128.713 21.1877 129.078 21.1877C129.171 21.1877 129.281 21.174 129.429 21.1194V22.0202ZM127.566 18.4021C127.12 18.7301 126.256 18.7438 125.486 18.8804C124.73 19.0171 124.081 19.2893 124.081 20.1502C124.081 20.9155 124.73 21.1877 125.432 21.1877C126.944 21.1877 127.566 20.2322 127.566 19.5899V18.4021Z" fill="#022899"/>
<path d="M132.094 14.9879H133.484V16.0117H132.094V20.3961C132.094 20.9291 132.242 21.0248 132.958 21.0248H133.485V22.0486H132.608C131.419 22.0486 130.946 21.8026 130.946 20.5055V16.0117H129.758V14.9879H130.946V12.8708H132.095L132.094 14.9879Z" fill="#022899"/>
<path d="M135.972 13.7159H134.824V12.2958H135.972V13.7159ZM134.824 14.9879H135.972V22.0486H134.824V14.9879Z" fill="#022899"/>
<path d="M140.768 14.8228C142.982 14.8228 144.157 16.449 144.157 18.5239C144.157 20.5874 142.982 22.2114 140.768 22.2114C138.553 22.2114 137.377 20.5863 137.377 18.5239C137.379 16.449 138.554 14.8228 140.768 14.8228ZM140.768 21.1876C141.969 21.1876 142.942 20.2321 142.942 18.5239C142.942 16.8032 141.97 15.8466 140.768 15.8466C139.565 15.8466 138.592 16.8032 138.592 18.5239C138.593 20.2321 139.566 21.1876 140.768 21.1876Z" fill="#022899"/>
<path d="M145.511 14.9879H146.592V16.1073H146.618C147.104 15.2327 147.887 14.8228 148.887 14.8228C150.724 14.8228 151.291 15.8887 151.291 17.4045V22.0485H150.142V17.2689C150.142 16.408 149.603 15.8477 148.725 15.8477C147.334 15.8477 146.658 16.7906 146.658 18.0604V22.0485H145.51V14.9879H145.511Z" fill="#022899"/>
<path d="M159.208 22.0202C159.006 22.1431 158.749 22.2115 158.385 22.2115C157.791 22.2115 157.412 21.8846 157.412 21.1194C156.779 21.8698 155.927 22.2115 154.955 22.2115C153.686 22.2115 152.645 21.6387 152.645 20.2322C152.645 18.6345 153.821 18.2928 155.009 18.0605C156.279 17.8145 157.358 17.8954 157.358 17.0219C157.358 16.0118 156.535 15.8478 155.806 15.8478C154.834 15.8478 154.118 16.1484 154.064 17.187H152.915C152.983 15.4389 154.32 14.824 155.872 14.824C157.128 14.824 158.492 15.111 158.492 16.7634V20.3962C158.492 20.9417 158.492 21.1877 158.856 21.1877C158.951 21.1877 159.06 21.174 159.208 21.1194V22.0202ZM157.345 18.4021C156.899 18.7301 156.035 18.7438 155.265 18.8804C154.509 19.0171 153.86 19.2893 153.86 20.1502C153.86 20.9155 154.509 21.1877 155.211 21.1877C156.723 21.1877 157.345 20.2322 157.345 19.5899V18.4021Z" fill="#022899"/>
<path d="M160.345 12.2958H161.494V22.0475H160.345V12.2958Z" fill="#022899"/>
<path d="M92.7351 30.2845C95.7999 30.2845 97.3537 32.7433 97.3537 35.3933C97.3537 38.0422 95.7999 40.5009 92.7351 40.5009C89.6691 40.5009 88.1165 38.0422 88.1165 35.3933C88.1165 32.7433 89.6703 30.2845 92.7351 30.2845ZM92.7351 39.4087C95.0849 39.4087 96.0701 37.36 96.0701 35.3944C96.0701 33.4265 95.0849 31.3789 92.7351 31.3789C90.3852 31.3789 89.4 33.4265 89.4 35.3944C89.4 37.36 90.3852 39.4087 92.7351 39.4087Z" fill="#022899"/>
<path d="M98.6957 33.2091H99.7755V34.6975H99.8025C100.356 33.5644 101.127 33.0041 102.367 33.0451V34.275C100.517 34.275 99.843 35.3398 99.843 37.1289V40.2709H98.6946L98.6957 33.2091Z" fill="#022899"/>
<path d="M108.88 39.6683C108.88 41.963 107.84 43.1372 105.639 43.1372C104.33 43.1372 102.817 42.6042 102.75 41.0611H103.897C103.953 41.9084 104.951 42.209 105.707 42.209C107.207 42.209 107.8 41.1158 107.8 39.5317V39.067H107.774C107.396 39.928 106.477 40.3516 105.599 40.3516C103.519 40.3516 102.479 38.6992 102.479 36.7723C102.479 35.1062 103.289 33.0438 105.706 33.0438C106.583 33.0438 107.368 33.4401 107.786 34.2179H107.8V33.2078H108.88V39.6683ZM107.746 36.5947C107.746 35.3522 107.207 34.0676 105.761 34.0676C104.288 34.0676 103.694 35.2827 103.694 36.6356C103.694 37.9054 104.153 39.3267 105.666 39.3267C107.178 39.3278 107.746 37.9202 107.746 36.5947Z" fill="#022899"/>
<path d="M116.797 40.2412C116.595 40.3642 116.338 40.4325 115.974 40.4325C115.38 40.4325 115.002 40.1057 115.002 39.3404C114.368 40.0909 113.517 40.4325 112.544 40.4325C111.275 40.4325 110.234 39.8597 110.234 38.4533C110.234 36.8555 111.41 36.5139 112.598 36.2816C113.868 36.0356 114.948 36.1164 114.948 35.243C114.948 34.2328 114.125 34.0688 113.395 34.0688C112.423 34.0688 111.707 34.3695 111.653 35.4081H110.505C110.572 33.66 111.909 33.045 113.461 33.045C114.718 33.045 116.081 33.332 116.081 34.9844V38.6173C116.081 39.1628 116.081 39.4088 116.446 39.4088C116.54 39.4088 116.649 39.3951 116.797 39.3404V40.2412ZM114.934 36.6232C114.488 36.9512 113.625 36.9648 112.854 37.1015C112.098 37.2382 111.449 37.5103 111.449 38.3713C111.449 39.1366 112.098 39.4088 112.8 39.4088C114.313 39.4088 114.934 38.4533 114.934 37.811V36.6232Z" fill="#022899"/>
<path d="M117.868 33.209H118.948V34.3284H118.975C119.462 33.4538 120.245 33.0438 121.244 33.0438C123.081 33.0438 123.648 34.1098 123.648 35.6255V40.2696H122.499V35.49C122.499 34.6291 121.96 34.0688 121.082 34.0688C119.691 34.0688 119.016 35.0117 119.016 36.2815V40.2696H117.867L117.868 33.209Z" fill="#022899"/>
<path d="M126.595 31.9369H125.447V30.5168H126.595V31.9369ZM125.447 33.209H126.595V40.2697H125.447V33.209Z" fill="#022899"/>
<path d="M127.812 39.3826L132.026 34.234H128.083V33.2102H133.511V34.0017L129.244 39.2459H133.7V40.2697H127.812V39.3826Z" fill="#022899"/>
<path d="M141.049 40.2412C140.847 40.3642 140.59 40.4325 140.226 40.4325C139.632 40.4325 139.253 40.1057 139.253 39.3404C138.619 40.0909 137.768 40.4325 136.795 40.4325C135.526 40.4325 134.486 39.8597 134.486 38.4533C134.486 36.8555 135.662 36.5139 136.849 36.2816C138.12 36.0356 139.199 36.1164 139.199 35.243C139.199 34.2328 138.376 34.0688 137.647 34.0688C136.675 34.0688 135.959 34.3695 135.905 35.4081H134.756C134.824 33.66 136.16 33.045 137.713 33.045C138.97 33.045 140.333 33.332 140.333 34.9844V38.6173C140.333 39.1628 140.333 39.4088 140.698 39.4088C140.791 39.4088 140.901 39.3951 141.049 39.3404V40.2412ZM139.186 36.6232C138.74 36.9512 137.876 36.9648 137.106 37.1015C136.35 37.2382 135.701 37.5103 135.701 38.3713C135.701 39.1366 136.35 39.4088 137.052 39.4088C138.564 39.4088 139.186 38.4533 139.186 37.811V36.6232Z" fill="#022899"/>
<path d="M143.713 33.209H145.104V34.2328H143.713V38.6172C143.713 39.1502 143.862 39.2458 144.578 39.2458H145.105V40.2696H144.228C143.039 40.2696 142.566 40.0237 142.566 38.7265V34.2328H141.378V33.209H142.566V31.0919H143.714L143.713 33.209Z" fill="#022899"/>
<path d="M147.591 31.9369H146.442V30.5168H147.591V31.9369ZM146.444 33.209H147.592V40.2697H146.444V33.209Z" fill="#022899"/>
<path d="M152.387 33.0438C154.602 33.0438 155.776 34.6701 155.776 36.745C155.776 38.8085 154.602 40.4325 152.387 40.4325C150.173 40.4325 148.997 38.8074 148.997 36.745C148.997 34.6701 150.173 33.0438 152.387 33.0438ZM152.387 39.4087C153.589 39.4087 154.561 38.4532 154.561 36.745C154.561 35.0242 153.59 34.0676 152.387 34.0676C151.185 34.0676 150.212 35.0242 150.212 36.745C150.212 38.4532 151.185 39.4087 152.387 39.4087Z" fill="#022899"/>
<path d="M157.131 33.209H158.211V34.3284H158.238C158.724 33.4538 159.508 33.0438 160.507 33.0438C162.344 33.0438 162.91 34.1098 162.91 35.6255V40.2696H161.762V35.49C161.762 34.6291 161.223 34.0688 160.344 34.0688C158.954 34.0688 158.278 35.0117 158.278 36.2815V40.2696H157.13L157.131 33.209Z" fill="#022899"/>
<path d="M168.871 34.2328H167.696V33.209H168.871V32.1568C168.871 31.0088 169.547 30.4087 170.802 30.4087C171.018 30.4087 171.329 30.4497 171.545 30.518V31.5293C171.342 31.461 171.1 31.4336 170.897 31.4336C170.343 31.4336 170.02 31.6113 170.02 32.2251V33.209H171.37V34.2328H170.02V40.2697H168.871V34.2328Z" fill="#022899"/>
<path d="M175.41 33.0438C177.624 33.0438 178.799 34.6701 178.799 36.745C178.799 38.8085 177.624 40.4325 175.41 40.4325C173.195 40.4325 172.019 38.8074 172.019 36.745C172.019 34.6701 173.195 33.0438 175.41 33.0438ZM175.41 39.4087C176.611 39.4087 177.584 38.4532 177.584 36.745C177.584 35.0242 176.612 34.0676 175.41 34.0676C174.207 34.0676 173.234 35.0242 173.234 36.745C173.234 38.4532 174.208 39.4087 175.41 39.4087Z" fill="#022899"/>
<path d="M180.113 33.2091H181.194V34.6975H181.22C181.773 33.5644 182.544 33.0041 183.786 33.0451V34.275C181.934 34.275 181.26 35.3398 181.26 37.1289V40.2709H180.112V33.2091H180.113Z" fill="#022899"/>
<path d="M94.2335 51.5929C94.0849 50.199 93.1673 49.5989 91.8432 49.5989C90.7634 49.5989 89.6836 49.9952 89.6836 51.265C89.6836 52.4676 91.2228 52.6452 92.7766 52.9994C94.3157 53.3547 95.8549 53.9013 95.8549 55.8134C95.8549 57.8895 93.8428 58.7231 92.0875 58.7231C89.9268 58.7231 88.1028 57.6571 88.1028 55.2816H89.3177C89.3177 56.9203 90.6688 57.631 92.1269 57.631C93.2877 57.631 94.5713 57.2631 94.5713 55.8555C94.5713 54.5163 93.0322 54.284 91.493 53.9423C89.9538 53.6007 88.4 53.1508 88.4 51.3606C88.4 49.3802 90.1419 48.5056 91.8983 48.5056C93.8687 48.5056 95.3685 49.4486 95.4496 51.5929H94.2335Z" fill="#022899"/>
<path d="M98.8173 51.43H100.207V52.4538H98.8173V56.8383C98.8173 57.3713 98.9659 57.4669 99.682 57.4669H100.208V58.4907H99.3307C98.1428 58.4907 97.67 58.2447 97.67 56.9476V52.4538H96.481V51.43H97.67V49.313H98.8184L98.8173 51.43Z" fill="#022899"/>
<path d="M107.664 58.4623C107.461 58.5853 107.204 58.6536 106.84 58.6536C106.246 58.6536 105.868 58.3268 105.868 57.5615C105.234 58.312 104.384 58.6536 103.41 58.6536C102.141 58.6536 101.101 58.0808 101.101 56.6744C101.101 55.0766 102.276 54.735 103.464 54.5026C104.734 54.2566 105.815 54.3375 105.815 53.464C105.815 52.4539 104.991 52.2899 104.261 52.2899C103.288 52.2899 102.573 52.5906 102.518 53.6292H101.371C101.438 51.8811 102.775 51.2661 104.328 51.2661C105.583 51.2661 106.948 51.5531 106.948 53.2055V56.8383C106.948 57.3838 106.948 57.6298 107.311 57.6298C107.406 57.6298 107.514 57.6162 107.664 57.5615V58.4623ZM105.8 54.8443C105.354 55.1723 104.491 55.1859 103.721 55.3226C102.964 55.4592 102.315 55.7314 102.315 56.5924C102.315 57.3576 102.964 57.6298 103.665 57.6298C105.179 57.6298 105.8 56.6744 105.8 56.0321V54.8443Z" fill="#022899"/>
<path d="M108.735 51.43H109.814V52.5495H109.84C110.327 51.6749 111.11 51.2649 112.11 51.2649C113.947 51.2649 114.514 52.3308 114.514 53.8466V58.4907H113.366V53.7111C113.366 52.8501 112.826 52.2898 111.947 52.2898C110.557 52.2898 109.882 53.2328 109.882 54.5026V58.4907H108.733L108.735 51.43Z" fill="#022899"/>
<path d="M122.486 58.4907H121.337V57.5341H121.31C120.933 58.3131 120.041 58.6536 119.082 58.6536C116.935 58.6536 115.869 56.9328 115.869 54.9388C115.869 52.9447 116.923 51.2638 119.055 51.2638C119.771 51.2638 120.798 51.5371 121.31 52.3707H121.337V48.7379H122.486V58.4907ZM119.244 57.6298C120.783 57.6298 121.379 56.2917 121.379 54.9661C121.379 53.5733 120.758 52.2887 119.178 52.2887C117.61 52.2887 117.085 53.6417 117.085 55.0208C117.084 56.3463 117.76 57.6298 119.244 57.6298Z" fill="#022899"/>
<path d="M130.445 58.4623C130.242 58.5853 129.986 58.6536 129.622 58.6536C129.027 58.6536 128.649 58.3268 128.649 57.5615C128.015 58.312 127.164 58.6536 126.191 58.6536C124.922 58.6536 123.882 58.0808 123.882 56.6744C123.882 55.0766 125.057 54.735 126.245 54.5026C127.515 54.2566 128.595 54.3375 128.595 53.464C128.595 52.4539 127.772 52.2899 127.042 52.2899C126.071 52.2899 125.355 52.5906 125.301 53.6292H124.152C124.22 51.8811 125.556 51.2661 127.109 51.2661C128.364 51.2661 129.729 51.5531 129.729 53.2055V56.8383C129.729 57.3838 129.729 57.6298 130.093 57.6298C130.187 57.6298 130.296 57.6162 130.445 57.5615V58.4623ZM128.58 54.8443C128.135 55.1723 127.271 55.1859 126.501 55.3226C125.744 55.4592 125.096 55.7314 125.096 56.5924C125.096 57.3576 125.744 57.6298 126.447 57.6298C127.959 57.6298 128.58 56.6744 128.58 56.0321V54.8443Z" fill="#022899"/>
<path d="M131.475 51.4301H132.556V52.9186H132.582C133.136 51.7854 133.906 51.2251 135.148 51.2661V52.4961C133.297 52.4961 132.623 53.5609 132.623 55.3499V58.4919H131.474L131.475 51.4301Z" fill="#022899"/>
<path d="M142.011 58.4907H140.862V57.5341H140.835C140.458 58.3131 139.566 58.6536 138.607 58.6536C136.46 58.6536 135.394 56.9328 135.394 54.9388C135.394 52.9447 136.447 51.2638 138.581 51.2638C139.296 51.2638 140.323 51.5371 140.835 52.3707H140.862V48.7379H142.011V58.4907ZM138.769 57.6298C140.309 57.6298 140.904 56.2917 140.904 54.9661C140.904 53.5733 140.282 52.2887 138.703 52.2887C137.135 52.2887 136.61 53.6417 136.61 55.0208C136.608 56.3463 137.284 57.6298 138.769 57.6298Z" fill="#022899"/>
<path d="M144.999 50.158H143.851V48.7379H144.999V50.158ZM143.852 51.4301H145V58.4907H143.852V51.4301Z" fill="#022899"/>
<path d="M146.216 57.6035L150.429 52.455H146.486V51.4312H151.914V52.2226L147.647 57.4669H152.104V58.4907H146.216V57.6035Z" fill="#022899"/>
<path d="M159.454 58.4623C159.251 58.5853 158.994 58.6536 158.631 58.6536C158.036 58.6536 157.658 58.3268 157.658 57.5615C157.024 58.312 156.173 58.6536 155.2 58.6536C153.931 58.6536 152.891 58.0808 152.891 56.6744C152.891 55.0766 154.066 54.735 155.254 54.5026C156.524 54.2566 157.604 54.3375 157.604 53.464C157.604 52.4539 156.781 52.2899 156.051 52.2899C155.079 52.2899 154.363 52.5906 154.309 53.6292H153.161C153.228 51.8811 154.565 51.2661 156.118 51.2661C157.374 51.2661 158.738 51.5531 158.738 53.2055V56.8383C158.738 57.3838 158.738 57.6298 159.102 57.6298C159.196 57.6298 159.305 57.6162 159.454 57.5615V58.4623ZM157.59 54.8443C157.144 55.1723 156.281 55.1859 155.511 55.3226C154.754 55.4592 154.106 55.7314 154.106 56.5924C154.106 57.3576 154.754 57.6298 155.457 57.6298C156.969 57.6298 157.59 56.6744 157.59 56.0321V54.8443Z" fill="#022899"/>
<path d="M162.118 51.43H163.508V52.4538H162.118V56.8383C162.118 57.3713 162.266 57.4669 162.982 57.4669H163.509V58.4907H162.632C161.443 58.4907 160.97 58.2447 160.97 56.9476V52.4538H159.782V51.43H160.97V49.313H162.119V51.43H162.118Z" fill="#022899"/>
<path d="M165.997 50.158H164.848V48.7379H165.997V50.158ZM164.848 51.4301H165.997V58.4907H164.848V51.4301Z" fill="#022899"/>
<path d="M170.792 51.2649C173.007 51.2649 174.181 52.8911 174.181 54.966C174.181 57.0296 173.007 58.6535 170.792 58.6535C168.577 58.6535 167.402 57.0284 167.402 54.966C167.403 52.8911 168.578 51.2649 170.792 51.2649ZM170.792 57.6297C171.993 57.6297 172.966 56.6743 172.966 54.966C172.966 53.2453 171.995 52.2887 170.792 52.2887C169.59 52.2887 168.617 53.2453 168.617 54.966C168.618 56.6743 169.591 57.6297 170.792 57.6297Z" fill="#022899"/>
<path d="M175.536 51.43H176.616V52.5495H176.642C177.129 51.6749 177.911 51.2649 178.911 51.2649C180.749 51.2649 181.315 52.3308 181.315 53.8466V58.4907H180.167V53.7111C180.167 52.8501 179.627 52.2898 178.749 52.2898C177.358 52.2898 176.683 53.2328 176.683 54.5026V58.4907H175.534V51.43H175.536Z" fill="#022899"/>
</svg>
