<svg width="48" height="48" viewBox="0 0 48 48" fill="none" xmlns="http://www.w3.org/2000/svg">
<rect width="48" height="48" rx="24" fill="#EEF9E6"/>
<path d="M31.6894 20.2876C32.0384 20.2878 32.3216 20.5721 32.3218 20.9223V27.4868L36.1968 31.619C36.2341 31.654 36.2669 31.6932 36.2948 31.7364C36.6655 32.204 36.9028 32.7646 36.9758 33.3587C37.0518 33.9785 36.9479 34.6073 36.6769 35.1694C36.4057 35.7317 35.9784 36.2034 35.4467 36.5281C34.9198 36.8498 34.3124 37.0125 33.6961 36.9992V37H25.7698V36.9992C25.1535 37.0121 24.5459 36.8492 24.0192 36.5273C23.488 36.2025 23.0616 35.7305 22.7906 35.1686C22.5196 34.6066 22.4151 33.9783 22.4909 33.3587C22.5667 32.7389 22.8195 32.1539 23.218 31.6744L23.2435 31.6463L27.1474 27.4868V20.9223C27.1475 20.572 27.4307 20.2877 27.7798 20.2876H31.6894ZM24.0258 32.7157C23.8771 32.9574 23.7814 33.2292 23.7466 33.5132C23.7005 33.8906 23.7636 34.2735 23.9286 34.6157C24.0936 34.9579 24.3536 35.2452 24.6771 35.443C25.0007 35.6408 25.3746 35.7413 25.7533 35.7314C25.7588 35.7313 25.7643 35.7306 25.7698 35.7306H33.6961L33.7125 35.7314C34.0914 35.7417 34.4658 35.6415 34.7896 35.4438C35.1132 35.2461 35.373 34.9588 35.5381 34.6165C35.7032 34.2742 35.7663 33.8915 35.72 33.514C35.6851 33.2299 35.5898 32.9573 35.4409 32.7157H24.0258ZM28.4121 27.7388C28.4121 27.9007 28.3506 28.0566 28.24 28.1744L25.1687 31.4463H34.298L31.2283 28.1727C31.118 28.055 31.057 27.8996 31.057 27.738V21.557H28.4121V27.7388ZM19.5224 26.738C19.8717 26.7381 20.1548 27.0222 20.1548 27.3727C20.1547 27.7231 19.8716 28.0074 19.5224 28.0074H15.6458C15.2967 28.0073 15.0135 27.7231 15.0134 27.3727C15.0134 27.0223 15.2966 26.7381 15.6458 26.738H19.5224ZM22.2702 22.8231C22.6193 22.8232 22.9025 23.1075 22.9026 23.4579C22.9026 23.8083 22.6194 24.0925 22.2702 24.0926H15.6458C15.2966 24.0925 15.0134 23.8083 15.0134 23.4579C15.0135 23.1075 15.2967 22.8232 15.6458 22.8231H22.2702ZM24.4679 18.9116C24.8172 18.9116 25.1003 19.1957 25.1003 19.5463C25.1002 19.8967 24.8171 20.181 24.4679 20.181H15.6458C15.2967 20.1809 15.0135 19.8966 15.0134 19.5463C15.0134 19.1958 15.2966 18.9117 15.6458 18.9116H24.4679ZM28.5875 18.0727V16.6934C28.5875 16.4715 28.5001 16.2585 28.3438 16.1017C28.1875 15.9448 27.9753 15.8571 27.7542 15.857H24.0916C23.7485 15.857 23.4678 15.5822 23.4592 15.238C23.4396 14.4442 23.1115 13.6893 22.5452 13.1347C21.9788 12.5801 21.2187 12.2694 20.4274 12.2694C19.6361 12.2694 18.876 12.5801 18.3095 13.1347C17.7433 13.6893 17.4151 14.4442 17.3955 15.238C17.3869 15.5822 17.1062 15.857 16.7632 15.857H13.0981C12.8773 15.8571 12.6656 15.945 12.5093 16.1017C12.353 16.2585 12.2648 16.4715 12.2648 16.6934V32.138L12.2689 32.2207C12.2879 32.4122 12.3725 32.5925 12.5093 32.7298C12.6656 32.8863 12.8773 32.9743 13.0981 32.9744H20.0898C20.439 32.9744 20.7222 33.2586 20.7222 33.6091C20.7221 33.9596 20.439 34.2438 20.0898 34.2438H13.0981C12.5419 34.2437 12.0085 34.0218 11.6151 33.6273C11.2217 33.2327 11.0004 32.6971 11 32.1388V16.6934C11 16.1349 11.2208 15.5991 11.6143 15.2041C12.0077 14.8092 12.5417 14.5877 13.0981 14.5876H16.1917C16.3436 13.6943 16.7731 12.8657 17.4268 12.2256C18.2295 11.4399 19.3062 11 20.4274 11C21.5486 11 22.6253 11.4399 23.428 12.2256C24.0817 12.8657 24.5112 13.6943 24.6631 14.5876H27.7542C28.3107 14.5876 28.8445 14.8092 29.238 15.2041C29.6315 15.5991 29.8523 16.1349 29.8523 16.6934V18.0727C29.8521 18.4231 29.5691 18.7074 29.2199 18.7074C28.8709 18.7073 28.5877 18.423 28.5875 18.0727ZM20.0741 14.924C20.0787 14.9471 20.0857 14.9698 20.0947 14.9917C20.1127 15.0353 20.1389 15.0749 20.1721 15.1083C20.2054 15.1416 20.2448 15.1679 20.2882 15.186C20.3316 15.204 20.378 15.214 20.4249 15.214C20.5199 15.214 20.6114 15.1757 20.6785 15.1083C20.7288 15.0578 20.7628 14.9938 20.7765 14.9248L20.7831 14.8545L20.7765 14.7835C20.7673 14.7374 20.749 14.6936 20.723 14.6545L20.6785 14.6L20.6193 14.6595L20.4249 14.8537L20.6785 14.6L20.6242 14.5554C20.5853 14.5293 20.5416 14.5109 20.4957 14.5017L20.4249 14.495C20.4014 14.4951 20.3779 14.497 20.3549 14.5017L20.2882 14.5223C20.2449 14.5403 20.2054 14.5667 20.1721 14.6C20.1555 14.6166 20.1406 14.6351 20.1277 14.6545L20.0947 14.7165C20.0767 14.7601 20.0667 14.8074 20.0667 14.8545L20.0741 14.924ZM21.3315 14.8545C21.3315 14.9739 21.3087 15.0922 21.2632 15.2025C21.2176 15.3128 21.1505 15.4131 21.0664 15.4975C20.9822 15.582 20.8823 15.6493 20.7724 15.695C20.6624 15.7408 20.544 15.7645 20.4249 15.7645C20.1845 15.7644 19.9543 15.6681 19.7843 15.4975C19.6354 15.3481 19.5438 15.1523 19.5233 14.9438L19.5183 14.8545L19.5233 14.7645C19.5439 14.5561 19.6355 14.3601 19.7843 14.2107L19.8502 14.1504C20.0115 14.0176 20.2145 13.9447 20.4249 13.9446L20.5139 13.9488C20.573 13.9546 20.6315 13.9661 20.6884 13.9835L20.7724 14.0132L20.8523 14.0521C20.9046 14.0802 20.9546 14.1126 21.0005 14.1504L21.0664 14.2107L21.1265 14.2769C21.164 14.3227 21.1966 14.3725 21.2245 14.4248L21.2632 14.5058L21.2928 14.5901C21.3187 14.6756 21.3315 14.7649 21.3315 14.8545Z" fill="#045304"/>
</svg>
