<svg width="64" height="64" viewBox="0 0 64 64" fill="none" xmlns="http://www.w3.org/2000/svg">
<rect width="64" height="64" rx="32" fill="#EEF9E6"/>
<path d="M44.4799 42.9133H19.5199C18.8088 42.9133 18.1866 42.6467 17.6533 42.1133C17.1199 41.58 16.8533 40.9578 16.8533 40.2467V33.6333C16.8533 33.42 16.9244 33.2422 17.0666 33.1C17.2088 32.9578 17.351 32.8867 17.4933 32.8867H20.1599C20.3733 32.8867 20.5333 32.9578 20.6399 33.1C20.7466 33.2422 20.7999 33.42 20.7999 33.6333V34.8067C20.7999 34.8778 20.8355 34.9489 20.9066 35.02C20.9777 35.0911 21.0844 35.1267 21.2266 35.1267H25.3866C25.4577 35.1267 25.5288 35.0911 25.5999 35.02C25.671 34.9489 25.7066 34.8778 25.7066 34.8067V33.6333C25.7066 33.42 25.7777 33.2422 25.9199 33.1C26.0622 32.9578 26.2044 32.8867 26.3466 32.8867H29.0133C29.2266 32.8867 29.3866 32.9578 29.4933 33.1C29.5999 33.2422 29.6533 33.42 29.6533 33.6333V34.8067C29.6533 34.8778 29.6888 34.9489 29.7599 35.02C29.831 35.0911 29.9377 35.1267 30.0799 35.1267H33.9199C33.991 35.1267 34.0622 35.0911 34.1333 35.02C34.2044 34.9489 34.2399 34.8778 34.2399 34.8067V33.6333C34.2399 33.42 34.3111 33.2422 34.4533 33.1C34.5955 32.9578 34.7377 32.8867 34.8799 32.8867H37.6533C37.8666 32.8867 38.0266 32.9578 38.1333 33.1C38.2399 33.2422 38.2933 33.42 38.2933 33.6333V34.8067C38.2933 34.8778 38.3288 34.9489 38.3999 35.02C38.4711 35.0911 38.5777 35.1267 38.7199 35.1267H42.7733C42.9155 35.1267 43.0222 35.0911 43.0933 35.02C43.1644 34.9489 43.1999 34.8778 43.1999 34.8067V33.6333C43.1999 33.42 43.2533 33.2422 43.3599 33.1C43.4666 32.9578 43.6266 32.8867 43.8399 32.8867H46.5066C46.6488 32.8867 46.791 32.9578 46.9333 33.1C47.0755 33.2422 47.1466 33.42 47.1466 33.6333V40.2467C47.1466 40.9578 46.8799 41.58 46.3466 42.1133C45.8133 42.6467 45.191 42.9133 44.4799 42.9133ZM17.7066 33.74V40.2467C17.7066 40.7444 17.8844 41.1711 18.2399 41.5267C18.5955 41.8822 19.0222 42.06 19.5199 42.06H44.4799C44.9777 42.06 45.4044 41.8822 45.7599 41.5267C46.1155 41.1711 46.2933 40.7444 46.2933 40.2467V33.74H44.0533V34.8067C44.0533 35.1622 43.9288 35.4467 43.6799 35.66C43.431 35.8733 43.1288 35.98 42.7733 35.98H38.7199C38.3644 35.98 38.0622 35.8733 37.8133 35.66C37.5644 35.4467 37.4399 35.1622 37.4399 34.8067V33.74H35.0933V34.8067C35.0933 35.1622 34.9688 35.4467 34.7199 35.66C34.4711 35.8733 34.2044 35.98 33.9199 35.98H30.0799C29.7244 35.98 29.4222 35.8733 29.1733 35.66C28.9244 35.4467 28.7999 35.1622 28.7999 34.8067V33.74H26.5599V34.8067C26.5599 35.1622 26.4355 35.4467 26.1866 35.66C25.9377 35.8733 25.671 35.98 25.3866 35.98H21.2266C20.871 35.98 20.5688 35.8733 20.3199 35.66C20.071 35.4467 19.9466 35.1622 19.9466 34.8067V33.74H17.7066ZM46.7199 39.5H17.2799C17.1377 39.5 17.031 39.4644 16.9599 39.3933C16.8888 39.3222 16.8533 39.2333 16.8533 39.1267C16.8533 39.02 16.8888 38.9133 16.9599 38.8067C17.031 38.7 17.1377 38.6467 17.2799 38.6467H46.7199C46.8622 38.6467 46.9688 38.7 47.0399 38.8067C47.111 38.9133 47.1466 39.02 47.1466 39.1267C47.1466 39.2333 47.111 39.3222 47.0399 39.3933C46.9688 39.4644 46.8622 39.5 46.7199 39.5ZM40.6399 35.98C40.4977 35.98 40.3911 35.9444 40.3199 35.8733C40.2488 35.8022 40.2133 35.6956 40.2133 35.5533V24.78C40.2133 24.7089 40.2488 24.62 40.3199 24.5133C40.3911 24.4067 40.4799 24.3533 40.5866 24.3533C40.6933 24.3533 40.7999 24.4067 40.9066 24.5133C41.0133 24.62 41.0666 24.7089 41.0666 24.78V35.5533C41.0666 35.6956 41.0133 35.8022 40.9066 35.8733C40.7999 35.9444 40.7111 35.98 40.6399 35.98ZM40.6399 25.2067C39.2888 25.2067 38.1688 24.7444 37.2799 23.82C36.3911 22.8956 35.911 21.7933 35.8399 20.5133C35.8399 20.3711 35.8933 20.2644 35.9999 20.1933C36.1066 20.1222 36.2311 20.0867 36.3733 20.0867C37.6533 20.0867 38.7555 20.5489 39.6799 21.4733C40.6044 22.3978 41.0666 23.5 41.0666 24.78C41.0666 24.9222 41.0133 25.0289 40.9066 25.1C40.7999 25.1711 40.7111 25.2067 40.6399 25.2067ZM36.7999 20.94C36.871 21.8644 37.2266 22.6289 37.8666 23.2333C38.5066 23.8378 39.2533 24.2111 40.1066 24.3533C40.0355 23.5 39.6799 22.7533 39.0399 22.1133C38.3999 21.4733 37.6533 21.0822 36.7999 20.94ZM40.6399 30.86C40.4977 30.86 40.3911 30.8244 40.3199 30.7533C40.2488 30.6822 40.2133 30.5756 40.2133 30.4333C40.2133 29.1533 40.6755 28.0511 41.5999 27.1267C42.5244 26.2022 43.6266 25.74 44.9066 25.74C45.0488 25.74 45.1555 25.7756 45.2266 25.8467C45.2977 25.9178 45.3333 26.0244 45.3333 26.1667C45.3333 27.4467 44.871 28.5489 43.9466 29.4733C43.0222 30.3978 41.9199 30.86 40.6399 30.86ZM44.4799 26.5933C43.5555 26.7356 42.791 27.1089 42.1866 27.7133C41.5822 28.3178 41.2088 29.0822 41.0666 30.0067C41.9911 29.8644 42.7555 29.4911 43.3599 28.8867C43.9644 28.2822 44.3377 27.5178 44.4799 26.5933ZM31.9999 35.98C31.8577 35.98 31.751 35.9444 31.6799 35.8733C31.6088 35.8022 31.5733 35.6956 31.5733 35.5533V24.78C31.5733 24.7089 31.6088 24.62 31.6799 24.5133C31.751 24.4067 31.8577 24.3533 31.9999 24.3533C32.1422 24.3533 32.2488 24.4067 32.3199 24.5133C32.391 24.62 32.4266 24.7089 32.4266 24.78V35.5533C32.4266 35.6956 32.391 35.8022 32.3199 35.8733C32.2488 35.9444 32.1422 35.98 31.9999 35.98ZM31.9999 25.2067C30.7199 25.2067 29.6177 24.7444 28.6933 23.82C27.7688 22.8956 27.3066 21.7933 27.3066 20.5133C27.3066 20.3711 27.3422 20.2644 27.4133 20.1933C27.4844 20.1222 27.591 20.0867 27.7333 20.0867C29.0133 20.0867 30.1155 20.5489 31.0399 21.4733C31.9644 22.3978 32.4266 23.5 32.4266 24.78C32.4266 24.9222 32.391 25.0289 32.3199 25.1C32.2488 25.1711 32.1422 25.2067 31.9999 25.2067ZM28.1599 20.94C28.3022 21.8644 28.6755 22.6289 29.2799 23.2333C29.8844 23.8378 30.6488 24.2111 31.5733 24.3533C31.431 23.5 31.0399 22.7533 30.3999 22.1133C29.7599 21.4733 29.0133 21.0822 28.1599 20.94ZM31.9999 30.86C31.8577 30.86 31.751 30.8244 31.6799 30.7533C31.6088 30.6822 31.5733 30.5756 31.5733 30.4333C31.5733 29.1533 32.0355 28.0511 32.9599 27.1267C33.8844 26.2022 34.9866 25.74 36.2666 25.74C36.4088 25.74 36.5155 25.7756 36.5866 25.8467C36.6577 25.9178 36.6933 26.0244 36.6933 26.1667C36.6933 27.4467 36.2311 28.5489 35.3066 29.4733C34.3822 30.3978 33.2799 30.86 31.9999 30.86ZM35.8399 26.5933C34.9866 26.7356 34.2399 27.1089 33.5999 27.7133C32.9599 28.3178 32.5688 29.0822 32.4266 30.0067C33.351 29.8644 34.1155 29.4911 34.7199 28.8867C35.3244 28.2822 35.6977 27.5178 35.8399 26.5933ZM23.3599 35.98C23.2888 35.98 23.1999 35.9444 23.0933 35.8733C22.9866 35.8022 22.9333 35.6956 22.9333 35.5533V24.78C22.9333 24.7089 22.9866 24.62 23.0933 24.5133C23.1999 24.4067 23.3066 24.3533 23.4133 24.3533C23.5199 24.3533 23.6088 24.4067 23.6799 24.5133C23.751 24.62 23.7866 24.7089 23.7866 24.78V35.5533C23.7866 35.6956 23.751 35.8022 23.6799 35.8733C23.6088 35.9444 23.5022 35.98 23.3599 35.98ZM23.3599 25.2067C22.0799 25.2067 20.9777 24.7444 20.0533 23.82C19.1288 22.8956 18.6666 21.7933 18.6666 20.5133C18.6666 20.3711 18.7022 20.2644 18.7733 20.1933C18.8444 20.1222 18.951 20.0867 19.0933 20.0867C20.3733 20.0867 21.4755 20.5489 22.3999 21.4733C23.3244 22.3978 23.7866 23.5 23.7866 24.78C23.7866 24.9222 23.751 25.0289 23.6799 25.1C23.6088 25.1711 23.5022 25.2067 23.3599 25.2067ZM19.5199 20.94C19.6622 21.8644 20.0355 22.6289 20.6399 23.2333C21.2444 23.8378 22.0088 24.2111 22.9333 24.3533C22.791 23.5 22.4177 22.7533 21.8133 22.1133C21.2088 21.4733 20.4444 21.0822 19.5199 20.94ZM23.3599 30.86C23.2888 30.86 23.1999 30.8244 23.0933 30.7533C22.9866 30.6822 22.9333 30.5756 22.9333 30.4333C22.9333 29.1533 23.3955 28.0511 24.3199 27.1267C25.2444 26.2022 26.3466 25.74 27.6266 25.74C27.7688 25.74 27.8933 25.7756 27.9999 25.8467C28.1066 25.9178 28.1599 26.0244 28.1599 26.1667C28.0888 27.4467 27.6088 28.5489 26.7199 29.4733C25.831 30.3978 24.711 30.86 23.3599 30.86ZM27.1999 26.5933C26.3466 26.7356 25.5999 27.1089 24.9599 27.7133C24.3199 28.3178 23.9644 29.0822 23.8933 30.0067C24.7466 29.8644 25.4933 29.4911 26.1333 28.8867C26.7733 28.2822 27.1288 27.5178 27.1999 26.5933Z" fill="#045304"/>
</svg>
