<svg width="64" height="64" viewBox="0 0 64 64" fill="none" xmlns="http://www.w3.org/2000/svg">
<rect width="64" height="64" rx="32" fill="#EEF9E6"/>
<g clip-path="url(#clip0_2223_1863)">
<path d="M27.9523 21.1868L28.0281 21.1907C28.4061 21.2265 28.7117 21.526 28.7484 21.911L29.8218 33.1789L44.95 29.2618L44.9507 29.261C45.2872 29.1743 45.6393 29.1659 45.9796 29.236C46.32 29.3061 46.64 29.4531 46.9148 29.6657C47.1897 29.8783 47.4122 30.1514 47.5656 30.4633C47.7189 30.7752 47.7994 31.1181 47.8 31.4657V46.9868C47.7999 47.4285 47.4417 47.7868 47 47.7868H42.3609C42.3518 47.7871 42.3427 47.7883 42.3335 47.7883H35.6664C35.6572 47.7883 35.6481 47.7871 35.639 47.7868H17C16.7878 47.7868 16.5843 47.7024 16.4343 47.5524C16.2843 47.4024 16.2 47.1989 16.2 46.9868L16.2015 38.3586C16.2012 37.886 16.3578 37.4264 16.6468 37.0524C16.9361 36.6783 17.3414 36.4109 17.7992 36.2922L19.4945 35.8524L20.8226 21.911L20.8328 21.8352C20.9043 21.4623 21.2319 21.1868 21.6187 21.1868H27.9523ZM41.5335 40.9883C41.5335 40.8469 41.4772 40.711 41.3773 40.611C41.2773 40.511 41.1414 40.4547 41 40.4547H37C36.8585 40.4547 36.7226 40.511 36.6226 40.611C36.5227 40.711 36.4664 40.847 36.4664 40.9883V46.1868H41.5335V40.9883ZM24.3335 40.8532C24.7752 40.8533 25.1335 41.2115 25.1335 41.6532C25.1335 42.0949 24.7753 42.453 24.3335 42.4532H22.3335C21.8917 42.4532 21.5335 42.095 21.5335 41.6532C21.5336 41.2114 21.8918 40.8532 22.3335 40.8532H24.3335ZM31 40.8532C31.4417 40.8532 31.7999 41.2114 31.8 41.6532C31.8 42.095 31.4418 42.4532 31 42.4532H29C28.5581 42.4532 28.2 42.095 28.2 41.6532C28.2 41.2114 28.5582 40.8532 29 40.8532H31ZM21.1421 35.4258L28.2531 33.5844L27.2242 22.7868H22.346L21.1421 35.4258ZM44.039 16.518C44.3121 16.1719 44.8139 16.112 45.1609 16.3844C45.508 16.6572 45.5686 17.1597 45.296 17.5071L44.6664 17.0133C45.2956 17.5073 45.2957 17.5081 45.2953 17.5086L45.2921 17.5118C45.2906 17.5137 45.2887 17.5162 45.2867 17.5188C45.2826 17.5239 45.2772 17.53 45.271 17.5375C45.2586 17.5526 45.242 17.5729 45.221 17.5969C45.1792 17.6449 45.1203 17.71 45.0437 17.7883C44.8903 17.9453 44.6656 18.1564 44.3664 18.3914C43.7673 18.8618 42.8676 19.4286 41.6406 19.8493C39.1676 20.697 35.4623 20.9178 30.3523 18.736C30.3463 18.7334 30.3402 18.7309 30.3343 18.7282C29.1909 18.2066 27.9448 17.948 26.6882 17.9719C26.2467 17.9802 25.882 17.629 25.8734 17.1875C25.865 16.7459 26.2161 16.3805 26.6578 16.3719C28.1471 16.3435 29.6241 16.6487 30.9804 17.2641C35.7757 19.3116 39.0711 19.0389 41.1218 18.336C42.1565 17.9813 42.8998 17.5083 43.3781 17.1329C43.6172 16.9451 43.79 16.782 43.8992 16.6704C43.9537 16.6145 43.9926 16.5717 44.0156 16.5454C44.027 16.5322 44.0346 16.5232 44.0382 16.5188L44.039 16.518ZM43.1335 46.1868H46.2V31.468C46.1998 31.3644 46.1762 31.2618 46.1304 31.1688C46.0847 31.0758 46.0178 30.9947 45.9359 30.9313C45.8539 30.8679 45.7585 30.8241 45.657 30.8032C45.5555 30.7823 45.4503 30.7851 45.35 30.811L45.3492 30.8102L18.2007 37.8414C18.0863 37.8711 17.9848 37.9377 17.9125 38.0313C17.8402 38.1248 17.8014 38.2397 17.8015 38.3579L17.8 46.1868H34.8664V40.9883C34.8664 40.4226 35.0914 39.8798 35.4914 39.4797C35.8914 39.0797 36.4342 38.8547 37 38.8547H41C41.5657 38.8547 42.1085 39.0796 42.5085 39.4797C42.9085 39.8798 43.1335 40.4226 43.1335 40.9883V46.1868Z" fill="#045304"/>
</g>
<defs>
<clipPath id="clip0_2223_1863">
<rect width="32" height="32" fill="white" transform="translate(16 16)"/>
</clipPath>
</defs>
</svg>
