<svg width="64" height="64" viewBox="0 0 64 64" fill="none" xmlns="http://www.w3.org/2000/svg">
<rect width="64" height="64" rx="32" fill="#EEF9E6"/>
<path d="M26.3468 35.5199C25.209 35.5911 24.2135 35.2355 23.3601 34.4533C22.8623 34.0266 22.489 33.4755 22.2401 32.7999C21.9912 32.1244 21.8668 31.4311 21.8668 30.7199C21.8668 30.5066 22.009 30.3644 22.2935 30.2933C22.9335 30.1511 23.609 30.1688 24.3201 30.3466C25.0312 30.5244 25.6535 30.8444 26.1868 31.3066C26.7201 31.7688 27.129 32.3377 27.4135 33.0133C27.6979 33.6888 27.8046 34.3822 27.7335 35.0933C27.7335 35.3066 27.5912 35.4311 27.3068 35.4666C27.0223 35.5022 26.7023 35.5199 26.3468 35.5199ZM22.7201 31.1466C22.7201 32.2133 23.129 33.1022 23.9468 33.8133C24.7646 34.5244 25.7423 34.8088 26.8801 34.6666C26.8801 33.5999 26.4712 32.7111 25.6535 31.9999C24.8357 31.2888 23.8579 31.0044 22.7201 31.1466ZM31.1468 41.4933H30.1868C30.1868 39.7155 30.3646 37.8311 30.7201 35.8399C31.3601 31.8577 32.4623 28.9422 34.0268 27.0933L34.6668 27.7333C33.1735 29.4399 32.1423 32.2488 31.5735 36.1599C31.289 38.0799 31.1468 39.8577 31.1468 41.4933ZM31.6801 35.4133L30.9335 34.9866C31.5735 34.0622 32.3912 33.3155 33.3868 32.7466C34.3823 32.1777 35.449 31.8222 36.5868 31.6799L36.6935 32.5333C35.6979 32.6755 34.7557 32.9955 33.8668 33.4933C32.9779 33.9911 32.249 34.6311 31.6801 35.4133ZM38.6135 33.0666C37.8312 33.0666 37.0846 32.8888 36.3735 32.5333C36.1601 32.4622 36.089 32.3199 36.1601 32.1066C36.3023 31.3955 36.5868 30.7555 37.0135 30.1866C37.4401 29.6177 37.9735 29.1733 38.6135 28.8533C39.2535 28.5333 39.929 28.3733 40.6401 28.3733C41.3512 28.3733 42.0268 28.5511 42.6668 28.9066C42.8801 29.0488 42.9512 29.2266 42.8801 29.4399C42.7379 30.1511 42.4535 30.791 42.0268 31.3599C41.6001 31.9288 41.0846 32.3555 40.4801 32.6399C39.8757 32.9244 39.2535 33.0666 38.6135 33.0666ZM37.1201 31.8933C38.1157 32.3199 39.1112 32.3022 40.1068 31.8399C41.1023 31.3777 41.7068 30.6133 41.9201 29.5466C40.9246 29.1199 39.9468 29.1377 38.9868 29.5999C38.0268 30.0622 37.4046 30.8266 37.1201 31.8933ZM28.2668 27.4133C28.1246 27.4133 28.0179 27.3777 27.9468 27.3066C27.3779 26.8799 26.8979 26.3644 26.5068 25.7599C26.1157 25.1555 25.9023 24.4799 25.8668 23.7333C25.8312 22.9866 25.9557 22.2933 26.2401 21.6533C26.5246 21.0133 26.9157 20.4799 27.4135 20.0533C27.6268 19.9111 27.8046 19.9111 27.9468 20.0533C28.5868 20.4088 29.1023 20.9066 29.4935 21.5466C29.8846 22.1866 30.0979 22.8622 30.1335 23.5733C30.169 24.2844 30.0446 24.9599 29.7601 25.5999C29.4757 26.2399 29.049 26.8088 28.4801 27.3066C28.409 27.3777 28.3379 27.4133 28.2668 27.4133ZM27.7335 20.9066C27.0223 21.6888 26.7023 22.6311 26.7735 23.7333C26.8446 24.8355 27.3068 25.7066 28.1601 26.3466C28.9423 25.6355 29.2979 24.7288 29.2268 23.6266C29.1557 22.5244 28.6579 21.6177 27.7335 20.9066ZM34.3468 27.8399C34.1335 27.8399 33.9912 27.7688 33.9201 27.6266C33.1379 25.9911 33.0668 24.4977 33.7068 23.1466C33.9912 22.5777 34.3823 22.0977 34.8801 21.7066C35.3779 21.3155 35.9468 21.0488 36.5868 20.9066C36.8001 20.8355 36.9779 20.9066 37.1201 21.1199C37.9023 22.7555 37.9735 24.2488 37.3335 25.5999C37.049 26.1688 36.6579 26.6488 36.1601 27.0399C35.6623 27.4311 35.0935 27.6977 34.4535 27.8399H34.3468ZM36.4801 21.8666C35.5557 22.1511 34.8801 22.7199 34.4535 23.5733C33.9557 24.7111 33.9912 25.8133 34.5601 26.8799C35.4846 26.6666 36.1601 26.0977 36.5868 25.1733C37.0846 24.0355 37.049 22.9333 36.4801 21.8666ZM31.7868 33.2799C31.7157 33.2799 31.6446 33.2799 31.5735 33.2799C30.3646 32.6399 29.4046 31.4311 28.6935 29.6533C28.2668 28.7288 27.9823 27.8399 27.8401 26.9866C27.769 26.8444 27.8046 26.7199 27.9468 26.6133C28.089 26.5066 28.2312 26.4888 28.3735 26.5599C28.5157 26.6311 28.6223 26.7377 28.6935 26.8799C28.8357 27.5911 29.0846 28.3733 29.4401 29.2266C30.0801 30.8622 30.9335 31.9644 32.0001 32.5333C32.2135 32.6044 32.2846 32.7466 32.2135 32.9599C32.1423 33.1733 32.0001 33.2799 31.7868 33.2799ZM30.7201 39.8933C30.5068 39.8933 30.3646 39.7866 30.2935 39.5733C30.0801 38.4355 29.4757 37.4044 28.4801 36.4799C27.9823 35.9822 27.5201 35.6266 27.0935 35.4133C26.9512 35.3422 26.8623 35.2533 26.8268 35.1466C26.7912 35.0399 26.809 34.9333 26.8801 34.8266C26.9512 34.7199 27.0401 34.6488 27.1468 34.6133C27.2535 34.5777 27.3779 34.5955 27.5201 34.6666C28.0179 34.9511 28.5512 35.3422 29.1201 35.8399C30.2579 36.9066 30.9335 38.0799 31.1468 39.3599C31.2179 39.5022 31.2001 39.6266 31.0935 39.7333C30.9868 39.8399 30.8623 39.8933 30.7201 39.8933ZM35.2001 38.6133C34.489 38.5422 33.849 38.3288 33.2801 37.9733C33.0668 37.8311 32.9957 37.6533 33.0668 37.4399C33.209 36.9422 33.4579 36.4799 33.8135 36.0533C34.169 35.6266 34.5957 35.3066 35.0935 35.0933C35.5912 34.8799 36.1246 34.8088 36.6935 34.8799C37.2623 34.9511 37.7601 35.1644 38.1868 35.5199C38.4001 35.5911 38.4712 35.7333 38.4001 35.9466C38.2579 36.5155 38.009 37.0133 37.6535 37.4399C37.2979 37.8666 36.8712 38.1866 36.3735 38.3999C36.0179 38.5422 35.6268 38.6133 35.2001 38.6133ZM34.0268 37.4399C34.6668 37.7955 35.3423 37.8311 36.0535 37.5466C36.7646 37.2622 37.2268 36.7644 37.4401 36.0533C36.8001 35.6977 36.1246 35.6622 35.4135 35.9466C34.7023 36.2311 34.2401 36.7288 34.0268 37.4399ZM31.6801 22.5066C31.5379 22.5066 31.4312 22.4711 31.3601 22.3999C30.9335 21.9733 30.6312 21.5111 30.4535 21.0133C30.2757 20.5155 30.2401 19.9822 30.3468 19.4133C30.4535 18.8444 30.6668 18.3466 30.9868 17.9199C31.3068 17.4933 31.7157 17.1733 32.2135 16.9599C32.4268 16.8177 32.6046 16.8177 32.7468 16.9599C33.1023 17.3866 33.3868 17.8666 33.6001 18.3999C33.8135 18.9333 33.8668 19.4666 33.7601 19.9999C33.6535 20.5333 33.4401 21.0133 33.1201 21.4399C32.8001 21.8666 32.3912 22.2222 31.8935 22.5066H31.6801ZM32.3201 17.8133C31.6801 18.2399 31.3068 18.8266 31.2001 19.5733C31.0935 20.3199 31.289 20.9777 31.7868 21.5466C32.4268 21.1199 32.8001 20.5333 32.9068 19.7866C33.0135 19.0399 32.8179 18.3822 32.3201 17.8133ZM25.0668 29.2266C24.4979 29.2266 23.9646 29.1022 23.4668 28.8533C22.969 28.6044 22.5601 28.2488 22.2401 27.7866C21.9201 27.3244 21.7246 26.8266 21.6535 26.2933C21.5823 25.7599 21.6179 25.2444 21.7601 24.7466C21.8312 24.5333 21.9735 24.4266 22.1868 24.4266C22.7557 24.4266 23.289 24.5511 23.7868 24.7999C24.2846 25.0488 24.6935 25.3866 25.0135 25.8133C25.3335 26.2399 25.529 26.7377 25.6001 27.3066C25.6712 27.8755 25.6357 28.4088 25.4935 28.9066C25.4223 29.1199 25.2801 29.2266 25.0668 29.2266ZM22.5068 25.2799C22.3646 25.9911 22.5068 26.6488 22.9335 27.2533C23.3601 27.8577 23.9646 28.1955 24.7468 28.2666C24.9601 27.5555 24.8357 26.8977 24.3735 26.2933C23.9112 25.6888 23.289 25.351 22.5068 25.2799ZM38.0801 47.1466H23.3601C22.7201 47.1466 22.1868 46.9155 21.7601 46.4533C21.3335 45.9911 21.1201 45.4577 21.1201 44.8533C21.1201 44.2488 21.3335 43.7155 21.7601 43.2533C22.1868 42.7911 22.7201 42.5599 23.3601 42.5599H24.4268C24.7823 41.8488 25.369 41.4222 26.1868 41.2799C27.0046 41.1377 27.6979 41.3511 28.2668 41.9199C28.9779 41.2088 29.8312 40.8533 30.8268 40.8533C31.8223 40.8533 32.6757 41.2799 33.3868 42.1333C33.8846 41.7777 34.4357 41.6355 35.0401 41.7066C35.6446 41.7777 36.1601 42.0622 36.5868 42.5599H38.0801C38.7201 42.5599 39.2535 42.7911 39.6801 43.2533C40.1068 43.7155 40.3201 44.2488 40.3201 44.8533C40.3201 45.4577 40.1068 45.9911 39.6801 46.4533C39.2535 46.9155 38.7201 47.1466 38.0801 47.1466ZM23.3601 43.4133C22.7912 43.4133 22.3823 43.6622 22.1335 44.1599C21.8846 44.6577 21.8846 45.1377 22.1335 45.5999C22.3823 46.0622 22.7912 46.2933 23.3601 46.2933H38.0801C38.4357 46.2933 38.7557 46.1511 39.0401 45.8666C39.3246 45.5822 39.4668 45.2444 39.4668 44.8533C39.4668 44.4622 39.3246 44.1244 39.0401 43.8399C38.7557 43.5555 38.4357 43.4133 38.0801 43.4133H36.3735C36.2312 43.4133 36.089 43.3777 35.9468 43.3066C35.6623 42.8088 35.2712 42.5599 34.7735 42.5599C34.2757 42.5599 33.8846 42.7377 33.6001 43.0933C33.4579 43.1644 33.3157 43.1999 33.1735 43.1999C33.0312 43.1999 32.9246 43.1288 32.8535 42.9866C32.6401 42.6311 32.3379 42.3466 31.9468 42.1333C31.5557 41.9199 31.1468 41.7955 30.7201 41.7599C30.2935 41.7244 29.9023 41.8133 29.5468 42.0266C29.1912 42.2399 28.9068 42.5244 28.6935 42.8799C28.6223 43.0222 28.4979 43.0933 28.3201 43.0933C28.1423 43.0933 28.0001 42.9866 27.8935 42.7733C27.7868 42.5599 27.5912 42.3822 27.3068 42.2399C27.0223 42.0977 26.7379 42.0444 26.4535 42.0799C26.169 42.1155 25.9023 42.2399 25.6535 42.4533C25.4046 42.6666 25.2446 42.8799 25.1735 43.0933C25.1023 43.3066 24.9601 43.4133 24.7468 43.4133H23.3601Z" fill="#045304"/>
</svg>
