<svg width="48" height="48" viewBox="0 0 48 48" fill="none" xmlns="http://www.w3.org/2000/svg">
<rect width="48" height="48" rx="24" fill="#EEF9E6"/>
<path d="M37.8132 17.1818L31.087 13.4545L26.8831 11.0909C26.6963 10.9697 26.5406 10.9697 26.416 11.0909L15.4859 17.1818C15.2991 17.2424 15.2057 17.3636 15.2057 17.5455V25.9091C14.396 25.9697 13.6175 26.2121 12.8702 26.6364C11.5 27.4242 10.6126 28.5606 10.2077 30.0455C9.80292 31.5303 9.98976 32.9242 10.7683 34.2273C11.5467 35.5303 12.6833 36.3939 14.1781 36.8182C14.6763 36.9394 15.1745 37 15.6728 37C16.6692 37 17.6346 36.7576 18.5688 36.2727C19.7521 35.6061 20.5929 34.6364 21.0911 33.3636L26.416 36.3636C26.4783 36.3636 26.5406 36.3636 26.6028 36.3636C26.6651 36.3636 26.7585 36.3636 26.8831 36.3636L37.8132 30.1818C37.9377 30.1212 38 30 38 29.8182V17.5455C38 17.3636 37.9377 17.2424 37.8132 17.1818ZM17.1675 26.0909C16.7938 25.9697 16.4513 25.9091 16.1399 25.9091V18.2727L19.4095 20.1818V24.0909C19.4095 24.2121 19.503 24.3333 19.6898 24.4545L22.2121 25.8182C22.2744 25.8788 22.3367 25.9091 22.399 25.9091C22.4612 25.9091 22.5547 25.8788 22.6792 25.8182C22.8038 25.7576 22.8661 25.6364 22.8661 25.4545V22.0909L26.2292 24L26.1357 24.1818L26.2292 35.2727L21.2779 32.4545C21.5893 31.0606 21.3402 29.7424 20.5306 28.5C19.7209 27.2576 18.5999 26.4545 17.1675 26.0909ZM32.4883 15.1818L22.2121 21C22.0876 21.0606 21.9941 21.1515 21.9319 21.2727V24.7273L20.3437 23.8182V20.1818L30.8067 14.2727L32.4883 15.1818ZM26.6028 23.1818L23.2397 21.3636L33.329 15.6364L36.6921 17.5455L26.6028 23.1818ZM26.6028 11.9091L29.9659 13.8182L19.8766 19.4545L16.5135 17.5455L26.6028 11.9091ZM18.1017 35.5455C16.9184 36.1515 15.6883 36.2879 14.4116 35.9545C13.1349 35.6212 12.1695 34.8939 11.5156 33.7727C10.8617 32.6515 10.706 31.4697 11.0485 30.2273C11.391 28.9848 12.1228 28.0303 13.2439 27.3636C13.9912 26.9394 14.8009 26.7273 15.6728 26.7273C16.1087 26.7273 16.5447 26.7879 16.9806 26.9091C18.2262 27.2121 19.1916 27.9394 19.8766 29.0909C20.5617 30.2424 20.733 31.4394 20.3904 32.6818C20.0479 33.9242 19.285 34.8788 18.1017 35.5455ZM27.0699 35.2727C27.0699 35.2121 27.0699 35.1818 27.0699 35.1818V24.1818L26.9765 24L37.1592 18.2727V29.5455L27.0699 35.2727ZM18.7556 32C18.7556 32.6061 18.5532 33.1061 18.1484 33.5C17.7436 33.8939 17.2298 34.0909 16.607 34.0909H15.6728C15.5482 34.0909 15.4392 34.0455 15.3458 33.9545C15.2524 33.8636 15.2057 33.7727 15.2057 33.6818C15.2057 33.5909 15.2524 33.5 15.3458 33.4091C15.4392 33.3182 15.5482 33.2727 15.6728 33.2727H16.607C16.9806 33.2727 17.292 33.1515 17.5412 32.9091C17.7903 32.6667 17.9148 32.3788 17.9148 32.0455C17.9148 31.7121 17.7903 31.4242 17.5412 31.1818C17.292 30.9394 16.9806 30.8182 16.607 30.8182H14.0846L14.5517 31.1818C14.614 31.2424 14.6452 31.3333 14.6452 31.4545C14.6452 31.5758 14.5984 31.6818 14.505 31.7727C14.4116 31.8636 14.3026 31.9091 14.1781 31.9091C14.0535 31.9091 13.9601 31.8788 13.8978 31.8182L12.6833 30.6364C12.6211 30.5758 12.5899 30.4848 12.5899 30.3636C12.5899 30.2424 12.6211 30.1515 12.6833 30.0909L13.8978 28.9091C13.9601 28.8485 14.0535 28.8182 14.1781 28.8182C14.3026 28.8182 14.4116 28.8485 14.505 28.9091C14.5984 28.9697 14.6452 29.0606 14.6452 29.1818C14.6452 29.303 14.614 29.4242 14.5517 29.5455L14.0846 29.9091H16.607C17.2298 29.9091 17.7436 30.1212 18.1484 30.5455C18.5532 30.9697 18.7556 31.4545 18.7556 32Z" fill="#045304"/>
</svg>
