<svg width="64" height="64" viewBox="0 0 64 64" fill="none" xmlns="http://www.w3.org/2000/svg">
<rect width="64" height="64" rx="32" fill="#EEF9E6"/>
<path d="M20.4799 42.88H18.1333C17.7777 42.88 17.4755 42.7556 17.2266 42.5067C16.9777 42.2578 16.8533 41.9556 16.8533 41.6V31.7867C16.8533 31.4311 16.9777 31.1289 17.2266 30.88C17.4755 30.6311 17.7777 30.5067 18.1333 30.5067H20.4799C20.8355 30.5067 21.1377 30.6311 21.3866 30.88C21.6355 31.1289 21.7599 31.4311 21.7599 31.7867V41.6C21.7599 41.9556 21.6355 42.2578 21.3866 42.5067C21.1377 42.7556 20.8355 42.88 20.4799 42.88ZM18.1333 31.36C18.0622 31.36 17.9733 31.3956 17.8666 31.4667C17.7599 31.5378 17.7066 31.6445 17.7066 31.7867V41.6C17.7066 41.7423 17.7599 41.8489 17.8666 41.92C17.9733 41.9911 18.0622 42.0267 18.1333 42.0267H20.4799C20.551 42.0267 20.6399 41.9911 20.7466 41.92C20.8533 41.8489 20.9066 41.7423 20.9066 41.6V31.7867C20.9066 31.6445 20.8533 31.5378 20.7466 31.4667C20.6399 31.3956 20.551 31.36 20.4799 31.36H18.1333ZM35.5199 38.6134H27.9466C27.8044 38.6134 27.6977 38.5423 27.6266 38.4C27.5555 38.2578 27.5555 38.1156 27.6266 37.9734C27.6977 37.8311 27.8044 37.76 27.9466 37.76H35.5199C35.8044 37.76 36.0711 37.6356 36.3199 37.3867C36.5688 37.1378 36.6933 36.8534 36.6933 36.5334C36.6933 36.2134 36.5688 35.9467 36.3199 35.7334C36.0711 35.52 35.8044 35.4134 35.5199 35.4134H32.8533C31.8577 35.4134 31.0399 35.04 30.3999 34.2934C29.7599 33.5467 28.9777 33.1734 28.0533 33.1734H21.3333C21.191 33.1734 21.0844 33.1378 21.0133 33.0667C20.9422 32.9956 20.9066 32.8889 20.9066 32.7467C20.9066 32.6045 20.9422 32.4978 21.0133 32.4267C21.0844 32.3556 21.191 32.32 21.3333 32.32H28.0533C29.2622 32.32 30.2577 32.7823 31.0399 33.7067C31.4666 34.2045 32.071 34.4534 32.8533 34.4534H35.5199C36.0888 34.4534 36.5688 34.6667 36.9599 35.0934C37.351 35.52 37.5466 36.0178 37.5466 36.5867C37.5466 37.1556 37.351 37.6356 36.9599 38.0267C36.5688 38.4178 36.0888 38.6134 35.5199 38.6134ZM31.8933 44.16C30.8266 44.16 29.7955 43.9823 28.7999 43.6267L21.1199 40.8534C21.0488 40.7823 20.9955 40.6934 20.9599 40.5867C20.9244 40.48 20.9244 40.3734 20.9599 40.2667C20.9955 40.16 21.0666 40.0711 21.1733 40C21.2799 39.9289 21.3688 39.9289 21.4399 40L29.1199 42.7734C30.1866 43.2 31.271 43.3778 32.3733 43.3067C33.4755 43.2356 34.5599 42.9511 35.6266 42.4534L46.1866 36.8C45.6888 36.3023 45.1022 35.9823 44.4266 35.84C43.751 35.6978 43.0933 35.7689 42.4533 36.0534L36.7999 38.08C36.6577 38.1511 36.5155 38.1334 36.3733 38.0267C36.2311 37.92 36.1777 37.7778 36.2133 37.6C36.2488 37.4223 36.3377 37.2978 36.4799 37.2267L42.1333 35.2C42.9155 34.9156 43.7333 34.8623 44.5866 35.04C45.4399 35.2178 46.1866 35.6267 46.8266 36.2667L46.9333 36.3734C47.0755 36.5156 47.1288 36.7111 47.0933 36.96C47.0577 37.2089 46.9333 37.3689 46.7199 37.44L35.9466 43.2C34.7377 43.84 33.3866 44.16 31.8933 44.16ZM40.5333 36.5867C40.5333 36.5867 40.4977 36.5867 40.4266 36.5867C40.3555 36.5867 40.2844 36.5334 40.2133 36.4267C40.1422 36.32 40.1066 36.1956 40.1066 36.0534L40.2133 35.52C40.2133 34.24 39.8044 33.12 38.9866 32.16C38.1688 31.2 37.1555 30.5778 35.9466 30.2934C34.7377 30.0089 33.5644 30.1511 32.4266 30.72C31.2888 31.2889 30.471 32.1423 29.9733 33.28C29.9022 33.4934 29.7955 33.6 29.6533 33.6C29.511 33.6 29.3866 33.5289 29.2799 33.3867C29.1733 33.2445 29.1555 33.1023 29.2266 32.96C29.7955 31.6089 30.7377 30.6134 32.0533 29.9734C33.3688 29.3334 34.7377 29.1556 36.1599 29.44C37.5822 29.7245 38.7555 30.4356 39.6799 31.5734C40.6044 32.7111 41.0666 34.0267 41.0666 35.52L40.9599 36.16C40.9599 36.3023 40.9244 36.4089 40.8533 36.48C40.7822 36.5511 40.6755 36.5867 40.5333 36.5867ZM35.0933 30.1867C35.0933 30.1867 35.0577 30.1867 34.9866 30.1867C34.9155 30.1867 34.8444 30.1334 34.7733 30.0267C34.7022 29.92 34.6666 29.8311 34.6666 29.76C34.8799 26.3467 35.7333 23.7511 37.2266 21.9734C38.0799 20.9778 39.1466 20.2667 40.4266 19.84C40.5688 19.7689 40.6933 19.7689 40.7999 19.84C40.9066 19.9111 40.9777 20 41.0133 20.1067C41.0488 20.2134 41.031 20.32 40.9599 20.4267C40.8888 20.5334 40.8177 20.6223 40.7466 20.6934C39.6088 21.0489 38.6488 21.6889 37.8666 22.6134C36.5155 24.1778 35.7333 26.56 35.5199 29.76C35.5199 29.9023 35.4666 30.0089 35.3599 30.08C35.2533 30.1511 35.1644 30.1867 35.0933 30.1867ZM32.9599 27.4134C32.3199 27.4134 31.7155 27.3067 31.1466 27.0934C30.3644 26.8089 29.6888 26.3645 29.1199 25.76C28.551 25.1556 28.1599 24.4623 27.9466 23.68C27.8044 23.4667 27.8399 23.2889 28.0533 23.1467C28.7644 22.72 29.5288 22.4711 30.3466 22.4C31.1644 22.3289 31.9644 22.4356 32.7466 22.72C33.5288 23.0045 34.2044 23.4489 34.7733 24.0534C35.3422 24.6578 35.7333 25.3511 35.9466 26.1334C36.0177 26.4178 35.9466 26.5956 35.7333 26.6667C34.8799 27.1645 33.9555 27.4134 32.9599 27.4134ZM28.7999 23.68C29.2977 24.96 30.1688 25.8311 31.4133 26.2934C32.6577 26.7556 33.8488 26.7023 34.9866 26.1334C34.5599 24.8534 33.7244 23.9823 32.4799 23.52C31.2355 23.0578 30.0088 23.1111 28.7999 23.68ZM39.7866 25.4934C39.0755 25.4934 38.4355 25.3511 37.8666 25.0667C37.2977 24.7823 36.7999 24.3911 36.3733 23.8934C36.2311 23.68 36.2311 23.5023 36.3733 23.36C36.7999 22.7911 37.2977 22.3645 37.8666 22.08C38.4355 21.7956 39.0755 21.6534 39.7866 21.6534C40.4266 21.6534 41.0488 21.7956 41.6533 22.08C42.2577 22.3645 42.7377 22.7911 43.0933 23.36C43.3066 23.5023 43.3066 23.68 43.0933 23.8934C42.7377 24.3911 42.2577 24.7823 41.6533 25.0667C41.0488 25.3511 40.4266 25.4934 39.7866 25.4934ZM37.3333 23.5734C37.9733 24.2845 38.791 24.64 39.7866 24.64C40.7111 24.64 41.5288 24.2845 42.2399 23.5734C41.5288 22.8623 40.7111 22.5067 39.7866 22.5067C38.791 22.5067 37.9733 22.8623 37.3333 23.5734Z" fill="#045304"/>
</svg>
