<svg width="64" height="64" viewBox="0 0 64 64" fill="none" xmlns="http://www.w3.org/2000/svg">
<rect width="64" height="64" rx="32" fill="#EEF9E6"/>
<path d="M45.1547 21.453C45.0846 21.0467 44.8885 20.7069 44.5662 20.4337C44.244 20.1605 43.8727 20.0239 43.4524 20.0239C40.8604 20.0379 38.3489 20.4933 35.918 21.39C33.4872 22.2867 31.2769 23.5687 29.2874 25.2359C29.1753 23.7648 28.769 22.3777 28.0685 21.0747C27.6061 20.1921 27.0317 19.3864 26.3451 18.6579C25.6586 17.9293 24.881 17.3058 24.0123 16.7874C23.6621 16.5773 23.2943 16.5002 22.909 16.5562C22.5237 16.6123 22.1909 16.7804 21.9107 17.0606C20.6217 18.4337 19.6409 19.9924 18.9684 21.7367C18.2959 23.4811 17.9737 25.292 18.0017 27.1694C18.0297 28.9909 18.3835 30.7282 19.063 32.3815C19.7425 34.0348 20.7058 35.5199 21.9527 36.8369C21.7005 37.8037 21.5184 38.7144 21.4063 39.569C21.3923 39.7512 21.4413 39.9228 21.5534 40.0839C21.6655 40.2451 21.8196 40.3396 22.0158 40.3676H22.1209C22.289 40.3676 22.4396 40.3116 22.5727 40.1995C22.7058 40.0874 22.7794 39.9403 22.7934 39.7582C22.9195 38.7914 23.1086 37.8457 23.3608 36.921C23.4029 36.8789 23.4239 36.8229 23.4239 36.7529C24.0544 34.5672 25.0141 32.5286 26.3031 30.6371C27.5641 28.7877 29.0878 27.1764 30.8741 25.8034C32.6605 24.4303 34.6115 23.3655 36.7272 22.6089C38.9128 21.8383 41.1616 21.439 43.4734 21.411C43.5434 21.411 43.61 21.439 43.673 21.4951C43.7361 21.5511 43.7746 21.6141 43.7886 21.6842C44.293 24.9767 44.307 28.2553 43.8306 31.5198L43.8096 31.6039C43.3193 33.6775 42.4296 35.5584 41.1406 37.2467C39.8516 38.935 38.2754 40.2836 36.4119 41.2924C34.7586 42.1891 33.0073 42.753 31.1579 42.9842C29.3084 43.2153 27.48 43.1068 25.6726 42.6584C27.0317 41.7477 28.2016 40.865 29.1823 40.0104C32.1526 37.4464 34.5905 34.4901 36.496 31.1415C36.5941 30.9874 36.6186 30.8158 36.5695 30.6266C36.5205 30.4375 36.4119 30.2939 36.2438 30.1958C36.0757 30.0977 35.9005 30.0732 35.7184 30.1222C35.5362 30.1713 35.3961 30.2798 35.2981 30.448C33.897 32.8719 32.2087 35.0856 30.2331 37.0891C28.2576 39.0927 26.0719 40.816 23.6761 42.2591L23.613 42.2801C22.1279 43.1768 20.5166 43.9614 18.7793 44.6339C18.6112 44.704 18.4886 44.8266 18.4115 45.0017C18.3344 45.1769 18.3309 45.3555 18.401 45.5376C18.457 45.6778 18.5411 45.7898 18.6532 45.8739C18.7653 45.958 18.8984 46 19.0525 46C19.1366 46 19.2206 45.979 19.3047 45.937C21 45.2784 22.5902 44.5078 24.0754 43.6252C25.7427 44.1996 27.487 44.4868 29.3084 44.4868C30.6535 44.4868 31.9845 44.3222 33.3015 43.9929C34.6185 43.6637 35.8725 43.1768 37.0634 42.5323C39.095 41.4255 40.8113 39.9613 42.2124 38.1399C43.6135 36.3185 44.5802 34.2869 45.1126 32.0452C45.1547 31.9752 45.1757 31.9121 45.1757 31.8561C45.7081 28.3814 45.7011 24.9137 45.1547 21.453ZM25.0211 29.9856C24.9931 29.0329 24.9581 28.3323 24.916 27.884C24.8039 26.567 24.5588 25.0398 24.1805 23.3025C24.1384 23.1203 24.0368 22.9767 23.8757 22.8716C23.7146 22.7665 23.536 22.735 23.3398 22.777C23.1437 22.8191 22.9965 22.9207 22.8985 23.0818C22.8004 23.2429 22.7724 23.4145 22.8144 23.5967C23.1647 25.1939 23.3994 26.6721 23.5184 28.0311C23.6375 29.3902 23.648 30.8823 23.55 32.5076C23.1156 33.3762 22.7373 34.294 22.4151 35.2607C21.028 33.6074 20.1103 31.737 19.662 29.6494C19.2136 27.6038 19.2627 25.5652 19.8091 23.5336C20.3835 21.46 21.4203 19.6246 22.9195 18.0274C22.9615 17.9713 23.0176 17.9433 23.0876 17.9433C23.1577 17.9433 23.2277 17.9573 23.2978 17.9853C24.7969 18.882 25.9598 20.0835 26.7865 21.5896C27.6131 23.0958 27.9984 24.7175 27.9424 26.4549C26.8495 27.5337 25.8758 28.7106 25.0211 29.9856Z" fill="#5B8C51"/>
</svg>
