<svg width="64" height="64" viewBox="0 0 64 64" fill="none" xmlns="http://www.w3.org/2000/svg">
<rect width="64" height="64" rx="32" fill="#EEF9E6"/>
<path d="M21.3333 43.1267H17.2799C17.1377 43.1267 17.031 43.0912 16.9599 43.0201C16.8888 42.949 16.8533 42.8423 16.8533 42.7001V31.0734C16.8533 30.9312 16.8888 30.8245 16.9599 30.7534C17.031 30.6823 17.1377 30.6467 17.2799 30.6467H21.3333C21.4755 30.6467 21.5822 30.6823 21.6533 30.7534C21.7244 30.8245 21.7599 30.9312 21.7599 31.0734V42.7001C21.7599 42.8423 21.7244 42.949 21.6533 43.0201C21.5822 43.0912 21.4755 43.1267 21.3333 43.1267ZM17.7066 42.2734H20.9066V31.5001H17.7066V42.2734ZM35.5199 38.7534H27.9466C27.8044 38.7534 27.6977 38.6823 27.6266 38.5401C27.5555 38.3978 27.5555 38.2556 27.6266 38.1134C27.6977 37.9712 27.8044 37.9001 27.9466 37.9001H35.5199C35.8044 37.9001 36.0711 37.7934 36.3199 37.5801C36.5688 37.3667 36.6933 37.1001 36.6933 36.7801C36.6933 36.4601 36.5688 36.1756 36.3199 35.9267C36.0711 35.6778 35.8044 35.5534 35.5199 35.5534H32.8533C31.8577 35.5534 31.0399 35.1978 30.3999 34.4867C29.7599 33.7756 28.9777 33.4201 28.0533 33.4201H21.3333C21.191 33.4201 21.0844 33.3667 21.0133 33.2601C20.9422 33.1534 20.9066 33.0467 20.9066 32.9401C20.9066 32.8334 20.9422 32.7445 21.0133 32.6734C21.0844 32.6023 21.191 32.5667 21.3333 32.5667H28.0533C29.2622 32.5667 30.2577 32.9934 31.0399 33.8467C31.4666 34.4156 32.071 34.7001 32.8533 34.7001H35.5199C36.0888 34.7001 36.5688 34.8956 36.9599 35.2867C37.351 35.6778 37.5466 36.1578 37.5466 36.7267C37.5466 37.2956 37.351 37.7756 36.9599 38.1667C36.5688 38.5578 36.0888 38.7534 35.5199 38.7534ZM31.8933 44.4067C30.8266 44.4067 29.7955 44.1934 28.7999 43.7667L21.1199 40.9934C20.9777 40.9223 20.8888 40.8156 20.8533 40.6734C20.8177 40.5312 20.871 40.4067 21.0133 40.3001C21.1555 40.1934 21.2977 40.1756 21.4399 40.2467L29.1199 43.0201C30.1866 43.3756 31.271 43.5356 32.3733 43.5001C33.4755 43.4645 34.5599 43.1623 35.6266 42.5934L46.1866 37.0467C45.6888 36.549 45.1022 36.229 44.4266 36.0867C43.751 35.9445 43.0933 35.9801 42.4533 36.1934L36.7999 38.3267C36.6577 38.3267 36.5155 38.2734 36.3733 38.1667C36.2311 38.0601 36.1777 37.9356 36.2133 37.7934C36.2488 37.6512 36.3377 37.5445 36.4799 37.4734L42.1333 35.4467C42.9155 35.1623 43.7333 35.109 44.5866 35.2867C45.4399 35.4645 46.1866 35.8378 46.8266 36.4067L46.9333 36.5134C47.0755 36.7267 47.1288 36.9401 47.0933 37.1534C47.0577 37.3667 46.9333 37.5445 46.7199 37.6867L35.9466 43.3401C34.7377 44.0512 33.3866 44.4067 31.8933 44.4067ZM34.2399 30.5401H34.1333C32.9955 30.469 32.0177 30.149 31.1999 29.5801C30.3822 29.0112 29.7955 28.3356 29.4399 27.5534C29.0844 26.7712 28.9066 26.0245 28.9066 25.3134C28.9066 24.8156 29.0844 24.4067 29.4399 24.0867C29.7955 23.7667 30.2044 23.6067 30.6666 23.6067C31.1288 23.6067 31.5377 23.7667 31.8933 24.0867C32.2488 24.4067 32.4266 24.7801 32.4266 25.2067C32.4266 25.6334 32.5333 25.989 32.7466 26.2734C33.1022 26.7712 33.6355 27.0201 34.3466 27.0201C34.8444 27.0912 35.2533 27.2867 35.5733 27.6067C35.8933 27.9267 36.0355 28.3178 35.9999 28.7801C35.9644 29.2423 35.7866 29.6512 35.4666 30.0067C35.1466 30.3623 34.7377 30.5401 34.2399 30.5401ZM30.7199 24.4601C30.4355 24.4601 30.2044 24.549 30.0266 24.7267C29.8488 24.9045 29.7599 25.1001 29.7599 25.3134C29.7599 26.309 30.1155 27.1978 30.8266 27.9801C31.6088 28.9756 32.7466 29.5445 34.2399 29.6867C34.5244 29.6867 34.7377 29.5978 34.8799 29.4201C35.0222 29.2423 35.111 29.029 35.1466 28.7801C35.1822 28.5312 35.111 28.3178 34.9333 28.1401C34.7555 27.9623 34.5599 27.8734 34.3466 27.8734C33.4222 27.8734 32.7288 27.6067 32.2666 27.0734C31.8044 26.5401 31.5733 25.9534 31.5733 25.3134C31.5733 25.1001 31.4844 24.9045 31.3066 24.7267C31.1288 24.549 30.9333 24.4601 30.7199 24.4601ZM35.0933 23.1801C34.7377 23.1801 34.4177 23.0734 34.1333 22.8601C33.8488 22.6467 33.6355 22.3801 33.4933 22.0601C33.351 21.7401 33.3155 21.4201 33.3866 21.1001C33.4577 20.7801 33.6355 20.4778 33.9199 20.1934C34.8444 19.3401 35.7866 18.8423 36.7466 18.7001C37.7066 18.5578 38.5777 18.629 39.3599 18.9134C40.1422 19.1978 40.8177 19.589 41.3866 20.0867C41.671 20.4423 41.8133 20.8512 41.8133 21.3134C41.8133 21.7756 41.6533 22.1845 41.3333 22.5401C41.0133 22.8956 40.6222 23.0734 40.1599 23.0734C39.6977 23.0734 39.3066 22.9134 38.9866 22.5934C38.6666 22.2734 38.3288 22.1134 37.9733 22.1134C37.4044 22.0423 36.8355 22.2556 36.2666 22.7534C35.9822 23.0378 35.591 23.1801 35.0933 23.1801ZM37.6533 19.4467C36.4444 19.5178 35.4133 19.9801 34.5599 20.8334C34.3466 20.9756 34.2399 21.1712 34.2399 21.4201C34.2399 21.669 34.3288 21.8823 34.5066 22.0601C34.6844 22.2378 34.8799 22.3267 35.0933 22.3267C35.3066 22.3267 35.5199 22.2556 35.7333 22.1134C36.3733 21.4734 37.0488 21.1712 37.7599 21.2067C38.4711 21.2423 39.0399 21.4734 39.4666 21.9001C39.6799 22.1134 39.8933 22.2201 40.1066 22.2201C40.3199 22.2201 40.5155 22.1312 40.6933 21.9534C40.871 21.7756 40.9599 21.5623 40.9599 21.3134C40.9599 21.0645 40.8888 20.869 40.7466 20.7267C39.8933 19.8734 38.8622 19.4467 37.6533 19.4467ZM42.8799 32.2467C42.3822 32.2467 41.9733 32.069 41.6533 31.7134C41.3333 31.3578 41.1733 30.9667 41.1733 30.5401C41.1733 30.1134 41.0666 29.7578 40.8533 29.4734C40.4977 29.0467 39.9288 28.7978 39.1466 28.7267C38.7199 28.7267 38.3288 28.549 37.9733 28.1934C37.6177 27.8378 37.4577 27.429 37.4933 26.9667C37.5288 26.5045 37.7244 26.0956 38.0799 25.7401C38.4355 25.3845 38.8266 25.2423 39.2533 25.3134H39.3599C40.5688 25.3845 41.5644 25.6867 42.3466 26.2201C43.1288 26.7534 43.6977 27.4112 44.0533 28.1934C44.4088 28.9756 44.5866 29.7223 44.5866 30.4334C44.5866 30.9312 44.4266 31.3578 44.1066 31.7134C43.7866 32.069 43.3777 32.2467 42.8799 32.2467ZM39.2533 26.1667C39.0399 26.1667 38.8444 26.2378 38.6666 26.3801C38.4888 26.5223 38.3999 26.7178 38.3999 26.9667C38.3999 27.2156 38.4888 27.429 38.6666 27.6067C38.8444 27.7845 39.0399 27.8734 39.2533 27.8734C40.1777 27.9445 40.871 28.229 41.3333 28.7267C41.7955 29.2245 42.0266 29.7934 42.0266 30.4334C42.0266 30.7178 42.1155 30.9312 42.2933 31.0734C42.4711 31.2156 42.6666 31.2867 42.8799 31.2867C43.0933 31.2867 43.2888 31.2156 43.4666 31.0734C43.6444 30.9312 43.7333 30.7178 43.7333 30.4334C43.7333 29.4378 43.4133 28.549 42.7733 27.7667C41.9199 26.7712 40.7822 26.2378 39.3599 26.1667H39.2533Z" fill="#045304"/>
</svg>
